<?xml version="1.0" encoding="UTF-8" standalone="no"?>
<!-- Generator: Adobe Illustrator 16.0.0, SVG Export Plug-In . SVG Version: 6.00 Build 0)  -->

<svg
   xmlns:dc="http://purl.org/dc/elements/1.1/"
   xmlns:cc="http://creativecommons.org/ns#"
   xmlns:rdf="http://www.w3.org/1999/02/22-rdf-syntax-ns#"
   xmlns:svg="http://www.w3.org/2000/svg"
   xmlns="http://www.w3.org/2000/svg"
   xmlns:sodipodi="http://sodipodi.sourceforge.net/DTD/sodipodi-0.dtd"
   xmlns:inkscape="http://www.inkscape.org/namespaces/inkscape"
   version="1.1"
   id="圖層_1"
   x="0px"
   y="0px"
   width="200"
   height="200"
   viewBox="0 0 200 200.00001"
   enable-background="new 0 0 1695.118 2415.118"
   xml:space="preserve"
   inkscape:version="0.48.4 r9939"
   sodipodi:docname="水利署.svg"><metadata
   id="metadata143"><rdf:RDF><cc:Work
       rdf:about=""><dc:format>image/svg+xml</dc:format><dc:type
         rdf:resource="http://purl.org/dc/dcmitype/StillImage" /></cc:Work></rdf:RDF></metadata><defs
   id="defs141">
	
	
	
	
</defs><sodipodi:namedview
   pagecolor="#ffffff"
   bordercolor="#666666"
   borderopacity="1"
   objecttolerance="10"
   gridtolerance="10"
   guidetolerance="10"
   inkscape:pageopacity="0"
   inkscape:pageshadow="2"
   inkscape:window-width="1440"
   inkscape:window-height="747"
   id="namedview139"
   showgrid="false"
   fit-margin-top="0"
   fit-margin-left="0"
   fit-margin-right="0"
   fit-margin-bottom="0"
   inkscape:zoom="0.78174237"
   inkscape:cx="507.96043"
   inkscape:cy="186.30108"
   inkscape:window-x="-8"
   inkscape:window-y="-8"
   inkscape:window-maximized="1"
   inkscape:current-layer="圖層_1" />
<g
   id="g63"
   transform="matrix(3.6741069,0,0,3.6740394,-116.32227,-8551.9256)">
		<path
   style="fill:#ffffff"
   inkscape:connector-curvature="0"
   id="path65"
   d="m 86.094,2354.88 c 0,15.033 -12.186,27.219 -27.217,27.219 -15.033,0 -27.217,-12.186 -27.217,-27.219 0,-15.031 12.185,-27.217 27.217,-27.217 15.031,0 27.217,12.186 27.217,27.217" />
		<path
   style="fill:#0097e0"
   inkscape:connector-curvature="0"
   id="path67"
   d="m 86.043,2356.579 c 0.035,-0.561 0.052,-1.129 0.052,-1.699 0,-15.031 -12.186,-27.217 -27.216,-27.217 -15.033,0 -27.218,12.186 -27.218,27.217 0,1.082 0.063,2.145 0.187,3.197 0,0 9.959,-5.135 27.089,0.477 13.521,4.425 27.106,-1.975 27.106,-1.975" />
		<path
   style="fill:#009944"
   inkscape:connector-curvature="0"
   id="path69"
   d="m 58.974,2366.165 c 14.57,4.313 25.023,-1.086 25.023,-1.086 l 0.129,-0.02 c 0.657,-1.629 1.161,-3.338 1.493,-5.102 -0.361,0.174 -14.311,5.805 -26.682,1.506 -15.992,-5.549 -25.766,-1.102 -26.622,-0.621 0.328,1.459 0.772,2.877 1.323,4.24 l 0.003,0 c 11.423,-4.431 24.211,0.751 25.333,1.087" />
		<path
   style="fill:#009944"
   inkscape:connector-curvature="0"
   id="path71"
   d="m 58.974,2374.099 c 7.455,2.203 13.797,1.693 18.257,0.879 1.933,-1.766 3.608,-3.807 4.968,-6.059 -5.127,1.436 -14.224,3.313 -23.293,0.309 -11.385,-3.764 -17.868,-3.197 -23.996,-1.439 0.764,1.416 1.647,2.756 2.641,4 10.248,-2.19 20.426,2.013 21.423,2.31" />
		<path
   style="fill:#009944"
   inkscape:connector-curvature="0"
   id="path73"
   d="m 59.052,2376.854 c -8.565,-2.518 -13.879,-3.291 -19.28,-2.588 4.915,4.84 11.659,7.832 19.104,7.832 4.981,0 9.646,-1.336 13.66,-3.674 -3.874,0.235 -8.445,-0.095 -13.484,-1.57" />
		<path
   style="fill:#ffffff"
   inkscape:connector-curvature="0"
   id="path75"
   d="m 58.176,2332.833 c 0,0 -6.434,8.459 -6.8,12.686 -0.368,4.227 4.135,6.801 6.525,7.076 2.389,0.279 8.715,-2.17 7.537,-8.457 -0.827,-4.41 -6.894,-11.209 -7.262,-11.305" />
		<path
   style="fill:#0097e0"
   inkscape:connector-curvature="0"
   id="path77"
   d="m 64.076,2343.796 c 0,0 -0.627,3.973 -2.194,5.129 -0.869,0.508 -1.737,0.482 -1.688,1.109 0.06,0.773 0.979,0.648 1.229,0.58 0.436,-0.123 2.749,-2.004 2.653,-6.818" />
	</g>

</svg>