<svg xmlns="http://www.w3.org/2000/svg" viewBox="0 0 2400 600">
  <path d="M 2375,568 L 2374,569 L 2374,570 L 2373,571 L 2372,571 L 2372,575 L 2373,575 L 2374,576 L 2374,577 L 2375,578 L 2376,578 L 2377,579 L 2377,580 L 2379,582 L 2379,583 L 2380,584 L 2380,588 L 2381,588 L 2382,589 L 2382,593 L 2383,594 L 2384,594 L 2385,595 L 2385,599 L 2399,599 L 2399,574 L 2398,574 L 2397,573 L 2395,573 L 2393,571 L 2387,571 L 2386,570 L 2386,569 L 2384,569 L 2383,568 Z" fill="#094a9a" fill-rule="evenodd"/>
  <path d="M 0,576 L 0,599 L 180,599 L 179,599 L 178,598 L 178,597 L 174,597 L 173,596 L 173,594 L 169,594 L 168,593 L 168,592 L 164,592 L 163,591 L 163,589 L 162,589 L 161,588 L 161,587 L 160,586 L 160,584 L 159,584 L 157,582 L 157,581 L 156,581 L 155,580 L 155,579 L 153,579 L 152,578 L 151,578 L 150,577 L 150,576 L 122,576 L 121,575 L 121,574 L 119,574 L 118,573 L 117,573 L 116,572 L 116,571 L 114,571 L 113,570 L 113,569 L 112,569 L 111,568 L 109,568 L 108,567 L 107,568 L 106,567 L 106,566 L 97,566 L 96,565 L 93,565 L 92,564 L 88,564 L 87,563 L 79,563 L 78,564 L 76,564 L 73,566 L 65,566 L 65,567 L 64,568 L 58,568 L 57,569 L 52,569 L 52,570 L 51,571 L 49,571 L 46,573 L 21,573 L 20,574 L 8,574 L 6,576 Z" fill="#094a9a" fill-rule="evenodd"/>
  <path d="M 2107,563 L 2106,564 L 2106,571 L 2105,572 L 2104,572 L 2104,599 L 2140,599 L 2139,598 L 2139,595 L 2137,593 L 2137,592 L 2136,592 L 2135,591 L 2135,589 L 2133,589 L 2132,588 L 2132,586 L 2131,586 L 2130,585 L 2130,584 L 2129,583 L 2129,582 L 2128,582 L 2126,580 L 2126,579 L 2125,579 L 2124,578 L 2124,576 L 2122,576 L 2121,575 L 2121,573 L 2120,573 L 2119,572 L 2119,571 L 2117,571 L 2116,570 L 2116,563 L 2111,563 L 2110,562 L 2110,561 L 2110,562 L 2109,563 Z" fill="#094a9a" fill-rule="evenodd"/>
  <path d="M 2366,584 L 2365,583 L 2364,583 L 2363,584 L 2362,584 L 2362,585 L 2360,587 L 2357,587 L 2357,588 L 2356,589 L 2354,589 L 2354,590 L 2352,592 L 2351,592 L 2351,594 L 2350,595 L 2348,595 L 2348,596 L 2347,597 L 2343,597 L 2342,596 L 2342,587 L 2341,587 L 2340,586 L 2340,579 L 2339,578 L 2338,578 L 2337,577 L 2337,574 L 2335,572 L 2335,571 L 2334,570 L 2334,564 L 2336,562 L 2337,562 L 2336,561 L 2337,560 L 2337,558 L 2338,557 L 2339,557 L 2339,556 L 2340,555 L 2340,553 L 2339,552 L 2338,552 L 2337,553 L 2336,553 L 2336,554 L 2335,555 L 2335,557 L 2334,558 L 2332,558 L 2332,560 L 2331,561 L 2330,561 L 2330,562 L 2329,563 L 2327,563 L 2327,565 L 2326,566 L 2325,566 L 2325,569 L 2323,571 L 2323,574 L 2321,576 L 2320,576 L 2320,585 L 2318,587 L 2318,588 L 2317,589 L 2317,593 L 2316,594 L 2315,594 L 2315,596 L 2314,597 L 2314,599 L 2360,599 L 2361,598 L 2361,592 L 2362,591 L 2363,591 L 2363,589 L 2364,588 L 2365,588 L 2365,587 L 2366,586 Z" fill="#094a9a" fill-rule="evenodd"/>
  <path d="M 1325,537 L 1325,572 L 1326,571 L 1327,572 L 1327,573 L 1328,574 L 1326,576 L 1325,576 L 1325,599 L 1361,599 L 1361,597 L 1360,596 L 1360,595 L 1359,595 L 1357,593 L 1357,592 L 1356,592 L 1355,591 L 1355,589 L 1353,589 L 1352,588 L 1352,586 L 1351,586 L 1350,585 L 1350,579 L 1348,579 L 1347,578 L 1347,572 L 1346,572 L 1345,571 L 1345,566 L 1344,566 L 1343,565 L 1343,563 L 1341,563 L 1341,568 L 1342,568 L 1343,569 L 1343,572 L 1342,573 L 1340,573 L 1339,574 L 1338,573 L 1338,572 L 1337,571 L 1337,565 L 1336,566 L 1335,565 L 1335,563 L 1334,562 L 1334,555 L 1333,555 L 1332,554 L 1332,548 L 1331,548 L 1329,546 L 1329,542 L 1328,542 L 1327,541 L 1327,537 Z" fill="#094a9a" fill-rule="evenodd"/>
  <path d="M 2293,564 L 2290,562 L 2290,560 L 2289,559 L 2289,558 L 2288,558 L 2287,557 L 2287,556 L 2285,554 L 2285,553 L 2284,553 L 2282,551 L 2282,550 L 2281,550 L 2280,549 L 2280,548 L 2277,546 L 2277,545 L 2274,545 L 2273,544 L 2273,543 L 2272,542 L 2270,542 L 2269,541 L 2269,540 L 2263,540 L 2261,537 L 2258,537 L 2256,535 L 2252,535 L 2248,532 L 2229,532 L 2229,533 L 2228,534 L 2227,533 L 2226,534 L 2224,534 L 2224,535 L 2223,536 L 2222,536 L 2220,539 L 2219,539 L 2219,541 L 2218,542 L 2216,542 L 2216,543 L 2214,545 L 2211,545 L 2209,547 L 2208,547 L 2207,548 L 2205,548 L 2205,549 L 2204,550 L 2202,550 L 2201,551 L 2200,551 L 2200,552 L 2199,553 L 2197,553 L 2197,554 L 2196,555 L 2194,555 L 2193,556 L 2192,556 L 2192,557 L 2191,558 L 2187,558 L 2187,559 L 2186,560 L 2185,560 L 2184,561 L 2182,561 L 2182,562 L 2181,563 L 2177,563 L 2177,565 L 2176,566 L 2172,566 L 2172,567 L 2171,568 L 2170,568 L 2169,569 L 2167,569 L 2167,570 L 2166,571 L 2164,571 L 2162,573 L 2160,573 L 2158,576 L 2154,576 L 2154,577 L 2149,581 L 2146,581 L 2146,582 L 2144,584 L 2143,584 L 2143,585 L 2142,586 L 2141,586 L 2140,587 L 2140,590 L 2141,591 L 2147,591 L 2148,592 L 2148,593 L 2152,593 L 2153,594 L 2168,594 L 2169,593 L 2178,593 L 2178,592 L 2179,591 L 2186,591 L 2186,590 L 2187,589 L 2188,589 L 2189,588 L 2193,588 L 2193,587 L 2194,586 L 2197,586 L 2198,585 L 2199,585 L 2199,584 L 2200,583 L 2202,583 L 2206,580 L 2213,580 L 2213,579 L 2214,578 L 2216,581 L 2216,583 L 2213,585 L 2213,594 L 2212,595 L 2211,595 L 2211,596 L 2210,597 L 2210,599 L 2273,599 L 2274,598 L 2275,595 L 2276,594 L 2277,594 L 2277,592 L 2278,591 L 2281,591 L 2281,590 L 2283,588 L 2284,588 L 2286,586 L 2287,586 L 2287,584 L 2289,582 L 2290,582 L 2290,579 L 2293,577 Z" fill="#094a9a" fill-rule="evenodd"/>
  <path d="M 1985,524 L 1984,525 L 1984,526 L 1983,527 L 1982,527 L 1982,544 L 1981,545 L 1980,545 L 1980,546 L 1979,547 L 1979,571 L 1978,572 L 1977,572 L 1977,586 L 1976,587 L 1974,587 L 1974,599 L 2005,599 L 2004,598 L 2005,597 L 2005,596 L 2004,595 L 2004,592 L 2003,592 L 2003,593 L 2002,594 L 2002,596 L 2001,597 L 2000,596 L 2000,594 L 1999,593 L 1999,564 L 1998,564 L 1997,563 L 1995,563 L 1995,565 L 1994,566 L 1993,566 L 1992,565 L 1992,545 L 1991,544 L 1991,543 L 1990,543 L 1989,542 L 1989,533 L 1987,531 L 1987,529 L 1986,528 L 1986,524 Z" fill="#094a9a" fill-rule="evenodd"/>
  <path d="M 1054,548 L 1053,547 L 1052,547 L 1051,548 L 1050,548 L 1050,549 L 1049,550 L 1049,551 L 1047,553 L 1047,554 L 1046,555 L 1045,555 L 1044,556 L 1044,557 L 1043,558 L 1042,558 L 1042,559 L 1040,561 L 1039,561 L 1039,562 L 1038,563 L 1037,563 L 1037,564 L 1035,566 L 1032,566 L 1031,565 L 1031,563 L 1030,562 L 1030,553 L 1029,553 L 1028,552 L 1028,548 L 1027,547 L 1027,545 L 1026,545 L 1025,544 L 1025,542 L 1024,542 L 1023,541 L 1023,540 L 1022,539 L 1022,538 L 1021,538 L 1020,537 L 1019,537 L 1017,535 L 1017,534 L 1016,534 L 1015,533 L 1015,530 L 1014,530 L 1013,529 L 1013,525 L 1012,524 L 1009,524 L 1007,527 L 1005,527 L 1005,528 L 1004,529 L 1003,529 L 1000,531 L 1000,551 L 999,552 L 998,552 L 998,557 L 997,558 L 995,558 L 995,565 L 994,566 L 993,566 L 993,572 L 991,574 L 990,574 L 990,575 L 989,576 L 989,580 L 987,582 L 987,588 L 986,589 L 984,589 L 984,593 L 983,594 L 982,594 L 982,599 L 1031,599 L 1031,597 L 1032,596 L 1033,596 L 1032,595 L 1033,594 L 1033,589 L 1036,587 L 1036,584 L 1037,583 L 1038,583 L 1038,579 L 1040,577 L 1040,576 L 1041,575 L 1041,571 L 1042,570 L 1043,570 L 1043,566 L 1044,565 L 1046,565 L 1046,561 L 1048,559 L 1048,558 L 1049,557 L 1049,556 L 1050,555 L 1051,555 L 1051,553 L 1053,551 L 1053,550 L 1054,549 Z" fill="#094a9a" fill-rule="evenodd"/>
  <path d="M 1207,488 L 1203,488 L 1200,483 L 1197,483 L 1194,480 L 1187,480 L 1184,478 L 1174,478 L 1173,477 L 1164,478 L 1161,480 L 1157,487 L 1155,488 L 1156,489 L 1153,490 L 1153,492 L 1148,495 L 1148,497 L 1143,501 L 1140,506 L 1138,506 L 1138,510 L 1133,514 L 1130,519 L 1130,521 L 1127,522 L 1124,527 L 1122,527 L 1122,531 L 1116,537 L 1114,536 L 1114,531 L 1108,525 L 1108,522 L 1106,521 L 1106,519 L 1104,519 L 1103,517 L 1099,516 L 1098,514 L 1092,514 L 1090,511 L 1089,512 L 1088,511 L 1081,511 L 1078,512 L 1077,514 L 1074,514 L 1068,520 L 1067,528 L 1065,529 L 1065,531 L 1069,531 L 1070,530 L 1074,531 L 1076,537 L 1075,575 L 1073,576 L 1072,588 L 1070,590 L 1070,596 L 1067,599 L 1116,599 L 1116,579 L 1115,578 L 1116,566 L 1119,565 L 1119,558 L 1121,557 L 1121,553 L 1124,552 L 1124,547 L 1126,546 L 1126,540 L 1129,539 L 1129,535 L 1132,533 L 1132,530 L 1137,525 L 1137,522 L 1140,520 L 1142,514 L 1145,513 L 1145,511 L 1150,506 L 1150,504 L 1159,497 L 1162,497 L 1169,504 L 1169,515 L 1166,519 L 1166,533 L 1164,535 L 1164,553 L 1163,557 L 1161,558 L 1161,578 L 1159,581 L 1159,599 L 1200,599 L 1200,586 L 1199,584 L 1200,583 L 1200,569 L 1202,566 L 1202,550 L 1204,549 L 1204,537 L 1207,536 L 1207,529 L 1209,528 L 1209,522 L 1211,520 L 1212,521 L 1212,517 L 1214,515 L 1214,498 L 1212,497 L 1212,495 L 1209,494 L 1209,491 L 1207,490 Z" fill="#094a9a" fill-rule="evenodd"/>
  <path d="M 2249,470 L 2247,470 L 2246,469 L 2246,467 L 2242,467 L 2240,464 L 2237,464 L 2236,463 L 2236,462 L 2229,462 L 2228,461 L 2226,461 L 2223,459 L 2205,459 L 2205,461 L 2204,462 L 2200,462 L 2200,463 L 2199,464 L 2198,464 L 2196,467 L 2194,467 L 2191,470 L 2187,470 L 2187,471 L 2186,472 L 2183,472 L 2181,475 L 2177,475 L 2177,476 L 2175,478 L 2171,478 L 2168,480 L 2166,480 L 2162,483 L 2159,483 L 2159,484 L 2158,485 L 2154,485 L 2154,486 L 2152,488 L 2146,488 L 2146,489 L 2145,490 L 2139,490 L 2138,491 L 2133,491 L 2132,490 L 2132,485 L 2128,485 L 2128,486 L 2126,488 L 2122,488 L 2122,489 L 2121,490 L 2120,490 L 2119,491 L 2117,491 L 2117,495 L 2116,496 L 2115,496 L 2115,503 L 2116,503 L 2117,504 L 2117,508 L 2119,508 L 2120,509 L 2120,511 L 2121,511 L 2122,512 L 2122,513 L 2124,513 L 2126,516 L 2129,516 L 2130,517 L 2130,518 L 2131,518 L 2133,520 L 2133,521 L 2135,521 L 2136,522 L 2136,523 L 2139,524 L 2140,525 L 2140,526 L 2152,526 L 2154,528 L 2153,529 L 2153,531 L 2152,532 L 2151,532 L 2151,533 L 2150,534 L 2149,534 L 2148,535 L 2148,536 L 2147,537 L 2146,537 L 2146,538 L 2144,540 L 2143,540 L 2143,541 L 2142,542 L 2141,542 L 2139,545 L 2138,545 L 2138,546 L 2139,547 L 2140,546 L 2143,546 L 2145,544 L 2148,544 L 2151,541 L 2155,541 L 2155,540 L 2156,539 L 2158,539 L 2158,538 L 2160,536 L 2163,536 L 2163,535 L 2164,534 L 2165,534 L 2166,533 L 2168,533 L 2168,532 L 2169,531 L 2171,531 L 2172,530 L 2173,530 L 2175,528 L 2176,528 L 2176,527 L 2177,526 L 2181,526 L 2181,525 L 2182,524 L 2184,524 L 2185,523 L 2186,523 L 2186,522 L 2187,521 L 2189,521 L 2190,520 L 2191,520 L 2191,519 L 2192,518 L 2194,518 L 2194,517 L 2195,516 L 2198,516 L 2200,513 L 2202,513 L 2203,512 L 2204,512 L 2209,508 L 2212,508 L 2214,505 L 2218,505 L 2218,504 L 2219,503 L 2228,503 L 2230,500 L 2238,500 L 2240,498 L 2243,497 L 2243,496 L 2244,495 L 2246,495 L 2246,494 L 2248,492 L 2249,492 L 2249,491 L 2251,489 L 2252,486 L 2254,484 L 2254,478 L 2253,478 L 2251,476 L 2251,473 L 2250,473 L 2249,472 Z" fill="#094a9a" fill-rule="evenodd"/>
  <path d="M 2399,441 L 2398,441 L 2398,442 L 2397,443 L 2393,443 L 2391,446 L 2387,446 L 2387,447 L 2385,449 L 2382,449 L 2382,450 L 2381,451 L 2377,451 L 2376,452 L 2374,452 L 2374,453 L 2373,454 L 2369,454 L 2369,455 L 2366,457 L 2359,457 L 2359,458 L 2358,459 L 2355,459 L 2354,458 L 2354,457 L 2352,455 L 2352,452 L 2353,451 L 2353,449 L 2352,448 L 2351,449 L 2349,449 L 2349,450 L 2347,452 L 2346,452 L 2346,453 L 2345,454 L 2343,454 L 2343,455 L 2342,456 L 2341,456 L 2340,457 L 2338,457 L 2338,460 L 2336,462 L 2335,462 L 2335,464 L 2334,465 L 2332,465 L 2333,466 L 2332,467 L 2332,481 L 2335,483 L 2335,487 L 2337,487 L 2338,488 L 2338,489 L 2339,489 L 2341,491 L 2341,495 L 2342,495 L 2343,496 L 2343,497 L 2345,497 L 2346,498 L 2346,499 L 2347,499 L 2348,500 L 2350,500 L 2352,503 L 2355,503 L 2356,504 L 2356,505 L 2360,505 L 2362,507 L 2362,508 L 2363,508 L 2364,509 L 2364,510 L 2368,510 L 2370,512 L 2370,513 L 2369,514 L 2369,516 L 2368,517 L 2367,517 L 2367,518 L 2366,519 L 2364,519 L 2364,521 L 2363,522 L 2362,522 L 2362,524 L 2360,526 L 2359,526 L 2359,528 L 2358,529 L 2357,529 L 2355,532 L 2354,532 L 2354,533 L 2353,534 L 2353,536 L 2352,537 L 2351,537 L 2351,539 L 2350,540 L 2348,540 L 2348,541 L 2347,542 L 2346,542 L 2346,544 L 2345,545 L 2343,545 L 2343,547 L 2345,547 L 2346,546 L 2347,546 L 2347,545 L 2348,544 L 2350,544 L 2350,542 L 2351,541 L 2353,541 L 2353,540 L 2354,539 L 2355,539 L 2356,538 L 2356,537 L 2357,536 L 2358,536 L 2360,534 L 2361,534 L 2362,533 L 2364,533 L 2366,531 L 2368,531 L 2368,530 L 2370,528 L 2371,528 L 2371,527 L 2372,526 L 2374,526 L 2377,523 L 2379,523 L 2379,522 L 2380,521 L 2382,521 L 2385,518 L 2387,518 L 2387,517 L 2388,516 L 2390,516 L 2391,515 L 2392,515 L 2394,513 L 2397,513 L 2398,512 L 2399,512 Z" fill="#094a9a" fill-rule="evenodd"/>
  <path d="M 0,414 L 0,464 L 3,464 L 4,463 L 4,462 L 5,461 L 5,460 L 7,458 L 7,457 L 8,456 L 9,456 L 10,455 L 10,454 L 11,453 L 12,453 L 12,452 L 14,450 L 15,450 L 15,448 L 16,447 L 17,447 L 17,446 L 18,445 L 18,444 L 20,442 L 20,436 L 19,436 L 18,435 L 18,433 L 17,432 L 17,431 L 16,431 L 15,430 L 15,426 L 14,425 L 13,425 L 12,424 L 12,421 L 11,421 L 10,420 L 10,419 L 9,418 L 8,418 L 7,417 L 6,417 L 4,415 L 2,415 L 1,414 Z" fill="#094a9a" fill-rule="evenodd"/>
  <path d="M 2399,407 L 2398,408 L 2398,409 L 2397,410 L 2396,410 L 2395,411 L 2395,412 L 2394,413 L 2395,414 L 2397,414 L 2397,413 L 2398,412 L 2399,412 Z" fill="#094a9a" fill-rule="evenodd"/>
  <path d="M 1765,415 L 1762,415 L 1760,412 L 1753,410 L 1750,407 L 1742,407 L 1741,405 L 1719,405 L 1718,407 L 1715,407 L 1703,420 L 1699,420 L 1698,423 L 1692,425 L 1690,428 L 1687,428 L 1685,431 L 1681,431 L 1675,436 L 1669,438 L 1664,443 L 1660,443 L 1653,449 L 1649,449 L 1640,457 L 1633,450 L 1632,446 L 1629,446 L 1617,433 L 1608,433 L 1603,438 L 1605,450 L 1610,459 L 1613,479 L 1616,483 L 1616,499 L 1613,503 L 1613,513 L 1616,517 L 1616,524 L 1618,525 L 1621,534 L 1624,535 L 1626,543 L 1631,548 L 1631,552 L 1636,557 L 1641,557 L 1642,560 L 1651,560 L 1659,552 L 1659,550 L 1662,549 L 1662,542 L 1665,539 L 1672,539 L 1687,531 L 1688,532 L 1686,539 L 1683,540 L 1683,542 L 1678,546 L 1678,549 L 1672,553 L 1668,560 L 1665,561 L 1657,571 L 1649,576 L 1649,578 L 1644,581 L 1640,587 L 1630,594 L 1627,594 L 1625,597 L 1621,597 L 1620,599 L 1711,599 L 1721,591 L 1724,591 L 1725,588 L 1729,588 L 1733,583 L 1745,578 L 1746,575 L 1750,575 L 1762,565 L 1765,565 L 1765,563 L 1769,560 L 1773,560 L 1781,548 L 1786,544 L 1785,537 L 1785,539 L 1781,542 L 1777,542 L 1775,545 L 1773,543 L 1781,536 L 1782,533 L 1783,534 L 1787,529 L 1789,529 L 1791,525 L 1788,525 L 1784,529 L 1780,529 L 1770,537 L 1766,537 L 1764,534 L 1756,535 L 1755,537 L 1743,540 L 1737,545 L 1723,550 L 1721,553 L 1704,558 L 1703,561 L 1699,561 L 1698,563 L 1695,562 L 1696,558 L 1704,550 L 1708,549 L 1725,531 L 1745,515 L 1758,501 L 1757,488 L 1754,488 L 1750,483 L 1747,482 L 1747,477 L 1750,474 L 1752,467 L 1755,466 L 1755,463 L 1759,458 L 1761,458 L 1761,454 L 1773,442 L 1775,437 L 1775,428 L 1773,427 L 1773,423 L 1771,423 L 1770,420 L 1765,417 Z" fill="#094a9a" fill-rule="evenodd"/>
  <path d="M 1759,541 L 1760,540 L 1761,541 L 1760,542 Z" fill="#094a9a" fill-rule="evenodd"/>
  <path d="M 1708,448 L 1709,449 L 1709,456 L 1708,457 L 1708,458 L 1707,459 L 1707,461 L 1706,462 L 1706,463 L 1705,464 L 1704,464 L 1704,469 L 1703,470 L 1702,470 L 1702,472 L 1701,473 L 1701,474 L 1700,475 L 1699,475 L 1699,478 L 1697,480 L 1697,481 L 1695,483 L 1694,483 L 1694,486 L 1692,488 L 1691,488 L 1691,489 L 1690,490 L 1689,490 L 1688,491 L 1688,492 L 1687,493 L 1686,493 L 1686,494 L 1685,495 L 1684,495 L 1682,497 L 1681,497 L 1680,498 L 1678,498 L 1675,501 L 1672,501 L 1672,502 L 1671,503 L 1670,503 L 1669,504 L 1665,504 L 1665,505 L 1664,506 L 1660,506 L 1659,505 L 1659,501 L 1657,499 L 1657,490 L 1656,489 L 1656,488 L 1656,489 L 1655,490 L 1654,489 L 1654,483 L 1653,482 L 1653,481 L 1651,479 L 1651,475 L 1649,475 L 1648,474 L 1648,470 L 1647,470 L 1646,469 L 1646,464 L 1648,462 L 1649,463 L 1653,463 L 1654,464 L 1677,464 L 1678,463 L 1679,463 L 1681,461 L 1685,461 L 1685,460 L 1687,458 L 1690,458 L 1690,457 L 1691,456 L 1694,456 L 1695,455 L 1695,454 L 1696,453 L 1701,453 L 1701,452 L 1703,450 L 1706,450 L 1706,449 L 1707,448 Z" fill="#094a9a" fill-rule="evenodd"/>
  <path d="M 2252,406 L 2251,405 L 2251,404 L 2250,404 L 2249,403 L 2248,400 L 2246,398 L 2246,396 L 2245,396 L 2243,394 L 2242,394 L 2241,393 L 2241,392 L 2239,392 L 2238,391 L 2237,391 L 2236,390 L 2236,389 L 2230,389 L 2228,386 L 2210,386 L 2209,385 L 2205,385 L 2204,386 L 2200,386 L 2199,387 L 2198,387 L 2198,388 L 2197,389 L 2193,389 L 2193,390 L 2192,391 L 2192,393 L 2191,394 L 2189,394 L 2188,395 L 2187,395 L 2187,396 L 2186,397 L 2184,397 L 2182,399 L 2179,400 L 2179,401 L 2178,402 L 2175,402 L 2173,405 L 2169,405 L 2169,406 L 2168,407 L 2165,407 L 2163,410 L 2159,410 L 2157,412 L 2154,412 L 2153,413 L 2151,413 L 2151,414 L 2150,415 L 2143,415 L 2142,416 L 2141,416 L 2139,418 L 2136,418 L 2135,417 L 2135,416 L 2134,415 L 2133,415 L 2131,412 L 2127,412 L 2126,413 L 2125,413 L 2125,414 L 2124,415 L 2122,415 L 2122,417 L 2121,418 L 2120,418 L 2120,427 L 2121,427 L 2122,428 L 2122,431 L 2123,432 L 2125,432 L 2128,435 L 2129,435 L 2130,436 L 2130,437 L 2132,437 L 2133,438 L 2133,440 L 2137,440 L 2138,441 L 2138,442 L 2140,442 L 2141,443 L 2142,443 L 2143,444 L 2143,445 L 2147,445 L 2149,448 L 2160,448 L 2161,449 L 2161,450 L 2168,450 L 2168,449 L 2169,448 L 2173,448 L 2174,449 L 2174,451 L 2173,452 L 2172,452 L 2172,453 L 2171,454 L 2169,454 L 2169,458 L 2168,459 L 2167,459 L 2167,461 L 2168,461 L 2168,459 L 2169,458 L 2173,458 L 2173,457 L 2174,456 L 2178,456 L 2178,454 L 2179,453 L 2183,453 L 2183,452 L 2185,450 L 2186,450 L 2186,449 L 2187,448 L 2191,448 L 2191,447 L 2193,445 L 2195,445 L 2198,442 L 2199,442 L 2199,441 L 2200,440 L 2203,440 L 2204,439 L 2204,438 L 2205,437 L 2207,437 L 2207,436 L 2208,435 L 2212,435 L 2212,434 L 2214,432 L 2217,432 L 2219,430 L 2223,430 L 2223,428 L 2224,427 L 2228,427 L 2230,425 L 2231,425 L 2232,424 L 2238,424 L 2238,423 L 2239,422 L 2244,422 L 2244,421 L 2245,420 L 2246,420 L 2246,418 L 2247,417 L 2248,417 L 2248,416 L 2249,415 L 2249,413 L 2250,412 L 2251,412 L 2251,409 L 2252,408 Z" fill="#094a9a" fill-rule="evenodd"/>
  <path d="M 808,361 L 803,366 L 803,381 L 805,382 L 806,396 L 808,397 L 808,401 L 810,402 L 813,411 L 816,413 L 816,416 L 821,420 L 821,422 L 826,426 L 826,429 L 831,434 L 831,440 L 834,444 L 834,458 L 831,461 L 831,478 L 829,480 L 829,493 L 826,499 L 826,519 L 824,520 L 823,543 L 828,548 L 826,555 L 826,572 L 824,573 L 821,586 L 818,589 L 815,599 L 902,599 L 903,592 L 906,590 L 908,578 L 911,575 L 911,563 L 914,560 L 916,550 L 919,546 L 919,537 L 921,536 L 921,529 L 924,525 L 924,518 L 926,517 L 926,509 L 928,507 L 928,504 L 926,503 L 927,493 L 929,490 L 929,485 L 932,482 L 934,468 L 937,466 L 937,457 L 939,456 L 939,451 L 942,448 L 944,429 L 940,434 L 938,442 L 935,446 L 935,450 L 930,457 L 930,463 L 927,465 L 927,469 L 925,470 L 925,474 L 920,480 L 920,484 L 917,485 L 917,489 L 912,495 L 909,503 L 907,504 L 907,507 L 904,509 L 904,513 L 901,515 L 899,521 L 896,522 L 896,526 L 889,535 L 889,538 L 886,540 L 883,549 L 880,550 L 876,556 L 876,559 L 874,561 L 873,560 L 871,567 L 867,569 L 865,575 L 862,576 L 862,580 L 859,584 L 857,584 L 857,586 L 849,595 L 850,596 L 844,597 L 843,553 L 845,551 L 848,529 L 851,524 L 851,515 L 854,513 L 856,496 L 859,494 L 861,480 L 864,479 L 867,467 L 870,465 L 872,459 L 875,458 L 875,454 L 879,449 L 882,448 L 884,444 L 890,439 L 890,431 L 893,430 L 893,425 L 890,424 L 890,415 L 888,414 L 888,411 L 885,409 L 882,402 L 880,402 L 875,397 L 871,397 L 869,394 L 860,391 L 859,389 L 850,389 L 848,386 L 834,384 L 833,382 L 824,379 L 813,370 L 812,366 L 810,365 L 810,361 Z" fill="#094a9a" fill-rule="evenodd"/>
  <path d="M 924,505 L 924,504 L 925,503 L 926,503 L 927,504 L 925,506 Z" fill="#094a9a" fill-rule="evenodd"/>
  <path d="M 2399,316 L 2398,316 L 2398,317 L 2396,319 L 2393,319 L 2391,321 L 2390,321 L 2389,322 L 2388,322 L 2386,324 L 2385,324 L 2384,325 L 2383,325 L 2381,327 L 2377,327 L 2375,329 L 2373,329 L 2372,330 L 2371,330 L 2371,331 L 2370,332 L 2364,332 L 2364,334 L 2363,335 L 2359,335 L 2359,336 L 2358,337 L 2351,337 L 2351,338 L 2350,339 L 2343,339 L 2342,340 L 2335,340 L 2334,341 L 2333,341 L 2332,340 L 2330,340 L 2329,339 L 2325,339 L 2324,338 L 2324,337 L 2318,337 L 2318,338 L 2317,339 L 2315,339 L 2314,340 L 2314,341 L 2313,342 L 2312,342 L 2312,351 L 2313,351 L 2314,352 L 2314,354 L 2316,354 L 2317,355 L 2317,357 L 2319,357 L 2320,358 L 2320,360 L 2322,360 L 2323,361 L 2323,362 L 2324,362 L 2325,363 L 2325,365 L 2326,365 L 2327,366 L 2327,367 L 2329,367 L 2330,368 L 2330,370 L 2332,370 L 2333,371 L 2333,372 L 2334,372 L 2335,373 L 2337,373 L 2338,374 L 2338,375 L 2341,375 L 2343,377 L 2343,378 L 2347,378 L 2349,381 L 2353,381 L 2354,382 L 2354,383 L 2361,383 L 2362,384 L 2362,385 L 2392,385 L 2394,383 L 2397,383 L 2397,382 L 2398,381 L 2399,381 Z" fill="#094a9a" fill-rule="evenodd"/>
  <path d="M 332,298 L 323,298 L 322,296 L 317,295 L 316,293 L 307,293 L 306,295 L 301,296 L 300,298 L 294,298 L 283,311 L 283,318 L 280,320 L 278,334 L 284,328 L 289,328 L 291,331 L 293,331 L 294,336 L 296,337 L 296,347 L 299,350 L 299,370 L 296,371 L 296,386 L 299,387 L 299,414 L 296,415 L 296,419 L 293,423 L 291,423 L 291,427 L 288,431 L 288,445 L 285,449 L 285,464 L 283,465 L 283,471 L 285,473 L 285,489 L 283,491 L 283,503 L 280,506 L 280,515 L 278,516 L 278,523 L 275,525 L 275,531 L 273,533 L 270,546 L 265,556 L 265,562 L 262,564 L 262,567 L 260,569 L 260,572 L 257,574 L 257,577 L 245,592 L 242,592 L 240,595 L 237,595 L 231,592 L 230,590 L 226,589 L 216,566 L 216,575 L 218,576 L 219,581 L 218,585 L 221,587 L 224,599 L 289,599 L 293,596 L 295,596 L 296,599 L 308,599 L 315,591 L 318,591 L 318,589 L 321,588 L 324,581 L 326,581 L 329,576 L 332,575 L 334,569 L 339,565 L 340,561 L 344,557 L 345,552 L 347,551 L 347,548 L 350,546 L 353,534 L 355,533 L 355,528 L 358,525 L 358,520 L 360,518 L 363,504 L 365,503 L 366,488 L 368,486 L 368,480 L 373,477 L 373,472 L 376,466 L 378,441 L 381,437 L 383,421 L 386,419 L 385,417 L 379,424 L 379,430 L 374,436 L 373,415 L 381,403 L 381,392 L 383,390 L 383,374 L 386,370 L 386,356 L 383,354 L 381,345 L 378,343 L 375,332 L 373,331 L 373,321 L 365,314 L 362,314 L 359,311 L 356,311 L 343,303 L 340,303 L 339,301 L 335,301 Z" fill="#094a9a" fill-rule="evenodd"/>
  <path d="M 305,586 L 306,587 L 304,589 L 304,591 L 303,592 L 301,592 L 301,594 L 300,595 L 299,594 L 299,596 L 298,597 L 296,597 L 295,596 L 295,592 L 296,591 L 298,591 L 298,590 L 300,588 L 300,587 L 301,586 Z" fill="#094a9a" fill-rule="evenodd"/>
  <path d="M 495,283 L 481,283 L 479,285 L 476,285 L 468,293 L 467,297 L 465,298 L 465,301 L 462,303 L 460,309 L 457,311 L 457,315 L 455,316 L 455,318 L 453,319 L 452,323 L 450,324 L 449,330 L 447,332 L 447,336 L 444,338 L 444,344 L 442,345 L 442,352 L 441,353 L 442,354 L 439,355 L 439,363 L 437,364 L 437,376 L 436,377 L 436,380 L 434,381 L 434,386 L 438,385 L 438,382 L 441,380 L 441,377 L 445,372 L 449,374 L 449,381 L 450,382 L 450,393 L 452,395 L 452,411 L 450,412 L 449,463 L 447,465 L 447,470 L 445,472 L 439,473 L 439,477 L 437,478 L 437,489 L 439,490 L 439,495 L 442,498 L 442,505 L 444,506 L 444,510 L 447,514 L 447,520 L 450,522 L 450,526 L 455,531 L 455,533 L 457,534 L 457,536 L 460,537 L 460,539 L 462,540 L 463,544 L 465,544 L 470,549 L 472,549 L 473,552 L 475,552 L 476,554 L 480,554 L 481,555 L 482,554 L 486,554 L 491,549 L 493,549 L 494,547 L 497,546 L 498,543 L 505,536 L 506,532 L 508,531 L 508,527 L 510,526 L 510,523 L 513,520 L 513,399 L 511,398 L 510,395 L 510,379 L 511,378 L 511,366 L 513,365 L 513,324 L 516,320 L 516,303 L 513,298 L 503,288 L 498,285 L 496,285 Z" fill="#094a9a" fill-rule="evenodd"/>
  <path d="M 2303,309 L 2301,307 L 2300,301 L 2298,300 L 2297,296 L 2294,295 L 2293,293 L 2289,293 L 2288,291 L 2285,291 L 2280,288 L 2276,288 L 2273,285 L 2268,285 L 2267,283 L 2263,282 L 2262,280 L 2249,280 L 2246,283 L 2237,283 L 2236,285 L 2232,285 L 2229,288 L 2229,291 L 2224,293 L 2223,295 L 2219,295 L 2214,298 L 2208,298 L 2207,301 L 2200,301 L 2199,303 L 2195,303 L 2191,306 L 2187,306 L 2178,311 L 2174,311 L 2170,314 L 2165,314 L 2163,316 L 2159,316 L 2157,319 L 2153,319 L 2152,321 L 2148,321 L 2145,324 L 2136,324 L 2133,325 L 2132,327 L 2127,327 L 2126,329 L 2120,329 L 2119,332 L 2112,332 L 2109,335 L 2104,335 L 2103,337 L 2098,337 L 2096,339 L 2092,339 L 2090,342 L 2086,342 L 2082,345 L 2078,345 L 2077,347 L 2073,347 L 2070,350 L 2064,350 L 2063,352 L 2060,353 L 2052,353 L 2051,355 L 2042,355 L 2041,353 L 2036,353 L 2031,348 L 2029,348 L 2028,350 L 2024,350 L 2024,352 L 2021,356 L 2021,367 L 2032,378 L 2038,381 L 2039,383 L 2046,386 L 2051,391 L 2054,391 L 2055,393 L 2060,393 L 2068,396 L 2095,396 L 2096,394 L 2103,393 L 2107,388 L 2110,388 L 2112,385 L 2119,383 L 2120,381 L 2124,381 L 2126,378 L 2134,378 L 2136,375 L 2139,375 L 2140,373 L 2142,373 L 2146,370 L 2149,370 L 2151,367 L 2155,367 L 2156,365 L 2159,365 L 2164,360 L 2168,360 L 2170,357 L 2174,357 L 2177,354 L 2181,354 L 2182,352 L 2186,352 L 2187,349 L 2194,349 L 2195,347 L 2199,346 L 2200,344 L 2203,345 L 2203,349 L 2200,350 L 2196,355 L 2194,355 L 2192,359 L 2183,368 L 2180,369 L 2179,371 L 2180,373 L 2182,370 L 2186,370 L 2187,368 L 2191,367 L 2192,365 L 2196,365 L 2200,360 L 2204,360 L 2205,357 L 2213,354 L 2214,352 L 2217,352 L 2219,349 L 2223,349 L 2224,346 L 2228,346 L 2233,341 L 2236,341 L 2245,336 L 2249,336 L 2250,334 L 2257,333 L 2258,331 L 2264,331 L 2265,329 L 2269,328 L 2285,329 L 2290,328 L 2291,326 L 2295,326 L 2300,320 L 2301,316 L 2303,315 Z" fill="#094a9a" fill-rule="evenodd"/>
  <path d="M 1505,267 L 1498,267 L 1497,265 L 1482,267 L 1474,275 L 1471,275 L 1471,284 L 1480,287 L 1486,293 L 1491,306 L 1491,385 L 1489,392 L 1469,407 L 1460,410 L 1454,415 L 1450,415 L 1448,418 L 1439,420 L 1438,423 L 1425,428 L 1405,428 L 1404,425 L 1401,425 L 1392,431 L 1392,440 L 1416,464 L 1420,464 L 1424,469 L 1436,472 L 1442,476 L 1459,477 L 1461,474 L 1474,469 L 1478,464 L 1484,463 L 1486,465 L 1486,471 L 1483,476 L 1476,475 L 1476,481 L 1481,486 L 1481,492 L 1483,493 L 1483,516 L 1471,548 L 1454,568 L 1447,571 L 1443,576 L 1439,576 L 1436,581 L 1426,581 L 1425,576 L 1421,576 L 1413,581 L 1408,590 L 1408,596 L 1405,599 L 1508,598 L 1576,510 L 1576,506 L 1586,490 L 1583,493 L 1579,493 L 1568,507 L 1565,504 L 1568,503 L 1571,496 L 1576,492 L 1576,488 L 1586,477 L 1594,462 L 1602,455 L 1598,454 L 1563,488 L 1556,490 L 1552,496 L 1535,506 L 1531,511 L 1528,512 L 1526,510 L 1534,433 L 1554,422 L 1558,422 L 1559,419 L 1563,419 L 1567,414 L 1578,414 L 1589,401 L 1589,390 L 1583,379 L 1570,374 L 1568,371 L 1539,367 L 1539,363 L 1542,362 L 1544,327 L 1547,325 L 1549,315 L 1547,301 L 1529,280 L 1522,277 L 1518,272 Z" fill="#094a9a" fill-rule="evenodd"/>
  <path d="M 1223,259 L 1215,259 L 1205,256 L 1200,251 L 1176,246 L 1165,254 L 1154,254 L 1148,257 L 1140,267 L 1109,280 L 1087,293 L 1077,293 L 1053,306 L 1033,311 L 1020,319 L 1001,324 L 999,327 L 985,329 L 979,327 L 973,319 L 961,324 L 958,336 L 966,354 L 987,370 L 1005,376 L 1020,375 L 1073,341 L 1078,343 L 1047,388 L 1023,413 L 1018,422 L 988,449 L 979,447 L 972,452 L 969,465 L 966,467 L 966,478 L 969,480 L 974,497 L 982,504 L 984,510 L 990,513 L 1002,513 L 1018,500 L 1060,479 L 1069,477 L 1081,469 L 1087,469 L 1088,466 L 1128,445 L 1134,445 L 1136,442 L 1145,440 L 1146,437 L 1170,430 L 1172,427 L 1177,429 L 1151,449 L 1146,456 L 1177,445 L 1194,445 L 1215,456 L 1228,458 L 1244,448 L 1251,432 L 1251,425 L 1244,406 L 1233,392 L 1199,371 L 1163,361 L 1146,363 L 1148,373 L 1161,391 L 1159,397 L 1086,420 L 1085,423 L 1078,423 L 1071,428 L 1061,431 L 1059,429 L 1083,406 L 1092,401 L 1133,357 L 1140,354 L 1137,335 L 1141,331 L 1182,310 L 1203,302 L 1220,302 L 1228,297 L 1233,291 L 1233,278 L 1228,273 L 1228,265 Z" fill="#094a9a" fill-rule="evenodd"/>
  <path d="M 0,210 L 0,300 L 1,300 L 2,299 L 4,299 L 6,297 L 10,297 L 12,299 L 13,299 L 14,300 L 22,300 L 23,299 L 25,299 L 25,298 L 26,297 L 33,297 L 33,296 L 34,295 L 36,295 L 37,294 L 38,294 L 38,293 L 39,292 L 41,292 L 43,290 L 44,290 L 45,289 L 46,289 L 46,288 L 47,287 L 48,287 L 50,285 L 51,285 L 52,284 L 53,284 L 53,283 L 54,282 L 54,281 L 55,280 L 56,280 L 56,275 L 57,274 L 58,274 L 60,272 L 61,272 L 62,271 L 64,271 L 64,267 L 65,266 L 67,266 L 67,260 L 64,258 L 64,254 L 62,252 L 62,250 L 59,247 L 59,246 L 57,246 L 56,245 L 56,244 L 53,244 L 51,242 L 51,241 L 50,241 L 48,239 L 48,238 L 47,238 L 46,237 L 46,235 L 45,234 L 45,231 L 43,229 L 43,226 L 41,224 L 41,223 L 39,223 L 36,220 L 32,220 L 31,219 L 31,218 L 30,218 L 29,217 L 19,217 L 18,218 L 17,217 L 15,217 L 14,216 L 14,215 L 11,215 L 10,214 L 10,212 L 8,212 L 7,211 L 7,210 Z" fill="#094a9a" fill-rule="evenodd"/>
  <path d="M 839,212 L 839,221 L 841,222 L 842,224 L 843,224 L 845,226 L 845,227 L 846,227 L 847,229 L 848,229 L 850,231 L 852,235 L 853,235 L 855,237 L 855,240 L 857,241 L 857,243 L 859,243 L 860,244 L 860,248 L 862,249 L 862,252 L 865,254 L 865,255 L 867,257 L 867,259 L 868,261 L 870,261 L 871,262 L 871,266 L 873,267 L 873,274 L 871,275 L 871,279 L 870,280 L 870,282 L 869,283 L 868,282 L 867,287 L 865,288 L 865,290 L 862,292 L 862,295 L 860,296 L 859,298 L 857,298 L 857,302 L 855,303 L 855,305 L 854,306 L 852,306 L 852,308 L 850,310 L 849,313 L 847,314 L 846,316 L 846,318 L 844,319 L 844,321 L 845,322 L 847,320 L 848,321 L 850,318 L 856,315 L 857,313 L 861,313 L 861,312 L 863,310 L 875,310 L 875,309 L 879,307 L 880,305 L 889,305 L 891,303 L 893,303 L 894,302 L 913,302 L 916,305 L 928,305 L 930,302 L 934,302 L 935,300 L 940,300 L 942,299 L 942,298 L 944,297 L 944,296 L 946,294 L 947,294 L 947,292 L 949,290 L 950,288 L 950,286 L 952,285 L 952,267 L 950,266 L 950,264 L 949,262 L 947,261 L 947,257 L 946,257 L 944,255 L 944,251 L 942,250 L 942,248 L 941,248 L 940,246 L 939,246 L 938,244 L 934,240 L 934,239 L 932,238 L 932,236 L 930,236 L 929,235 L 929,233 L 928,233 L 927,231 L 925,231 L 924,230 L 924,228 L 920,228 L 919,226 L 917,225 L 915,225 L 914,223 L 912,223 L 908,220 L 904,220 L 903,219 L 902,220 L 900,217 L 896,217 L 895,215 L 886,215 L 883,212 L 878,212 L 877,210 L 855,210 L 854,209 L 847,209 L 846,210 L 844,210 L 843,212 Z" fill="#094a9a" fill-rule="evenodd"/>
  <path d="M 2138,207 L 2138,214 L 2142,214 L 2144,216 L 2147,216 L 2148,217 L 2148,218 L 2151,220 L 2151,221 L 2152,221 L 2153,222 L 2155,222 L 2156,223 L 2156,224 L 2157,224 L 2159,226 L 2159,227 L 2160,227 L 2161,228 L 2161,229 L 2162,230 L 2163,230 L 2165,232 L 2168,233 L 2169,234 L 2169,235 L 2170,235 L 2171,236 L 2171,237 L 2174,239 L 2174,241 L 2175,242 L 2175,243 L 2176,243 L 2177,244 L 2177,251 L 2176,252 L 2176,253 L 2175,254 L 2174,254 L 2174,256 L 2173,257 L 2172,257 L 2172,260 L 2170,262 L 2169,262 L 2169,263 L 2168,264 L 2167,264 L 2167,265 L 2164,268 L 2164,269 L 2163,270 L 2162,270 L 2162,271 L 2161,272 L 2161,274 L 2165,274 L 2167,272 L 2168,272 L 2169,271 L 2173,271 L 2173,270 L 2174,269 L 2178,269 L 2180,266 L 2187,266 L 2187,265 L 2190,263 L 2212,263 L 2214,265 L 2214,266 L 2218,266 L 2219,267 L 2219,269 L 2231,269 L 2234,266 L 2236,266 L 2236,264 L 2237,263 L 2238,263 L 2238,262 L 2239,261 L 2241,261 L 2241,259 L 2242,258 L 2243,258 L 2243,254 L 2244,253 L 2246,253 L 2246,236 L 2245,236 L 2243,234 L 2243,230 L 2242,230 L 2241,229 L 2241,225 L 2239,225 L 2238,224 L 2238,221 L 2236,219 L 2236,218 L 2235,217 L 2234,217 L 2233,216 L 2233,215 L 2232,215 L 2231,214 L 2231,213 L 2228,211 L 2228,210 L 2224,210 L 2223,209 L 2223,207 L 2219,207 L 2217,204 L 2214,204 L 2213,203 L 2213,202 L 2211,202 L 2209,200 L 2209,199 L 2199,199 L 2197,197 L 2188,197 L 2186,195 L 2185,195 L 2184,194 L 2175,194 L 2174,195 L 2172,195 L 2169,197 L 2161,197 L 2161,198 L 2160,199 L 2154,199 L 2153,200 L 2151,200 L 2149,202 L 2146,202 L 2144,204 L 2143,204 L 2142,205 L 2141,205 L 2139,207 Z" fill="#094a9a" fill-rule="evenodd"/>
  <path d="M 1842,171 L 1842,175 L 1843,175 L 1844,177 L 1846,178 L 1847,180 L 1848,180 L 1850,182 L 1850,185 L 1852,186 L 1852,188 L 1854,188 L 1855,189 L 1855,191 L 1857,192 L 1857,194 L 1858,196 L 1862,199 L 1862,203 L 1863,203 L 1865,205 L 1865,206 L 1867,207 L 1868,209 L 1868,211 L 1869,211 L 1870,213 L 1875,217 L 1875,219 L 1877,219 L 1878,220 L 1878,222 L 1880,223 L 1881,225 L 1881,227 L 1882,226 L 1883,227 L 1883,232 L 1882,233 L 1880,233 L 1880,235 L 1878,236 L 1878,238 L 1877,239 L 1875,239 L 1875,240 L 1873,241 L 1873,243 L 1872,244 L 1870,244 L 1870,245 L 1868,246 L 1868,247 L 1866,249 L 1865,249 L 1865,250 L 1863,251 L 1862,253 L 1860,254 L 1860,255 L 1858,257 L 1857,257 L 1856,259 L 1855,259 L 1855,261 L 1858,261 L 1860,258 L 1865,258 L 1867,256 L 1903,256 L 1904,258 L 1906,258 L 1907,259 L 1907,261 L 1911,261 L 1912,263 L 1924,263 L 1924,262 L 1926,261 L 1927,263 L 1932,264 L 1933,266 L 1935,266 L 1936,268 L 1938,269 L 1942,269 L 1943,268 L 1947,268 L 1948,266 L 1950,266 L 1951,264 L 1953,263 L 1955,263 L 1956,261 L 1958,261 L 1959,259 L 1962,258 L 1963,256 L 1963,254 L 1965,253 L 1966,251 L 1966,249 L 1967,248 L 1967,241 L 1968,240 L 1968,228 L 1966,227 L 1965,225 L 1965,223 L 1963,222 L 1963,219 L 1960,216 L 1960,215 L 1958,214 L 1958,212 L 1957,211 L 1957,207 L 1955,206 L 1955,202 L 1954,202 L 1952,200 L 1952,199 L 1951,199 L 1950,197 L 1949,197 L 1947,195 L 1947,194 L 1944,194 L 1943,192 L 1941,192 L 1938,189 L 1933,189 L 1932,187 L 1930,187 L 1928,186 L 1927,184 L 1925,184 L 1923,181 L 1920,181 L 1919,179 L 1914,179 L 1912,178 L 1911,176 L 1904,176 L 1903,174 L 1873,174 L 1872,173 L 1863,173 L 1861,171 L 1857,171 L 1856,169 L 1854,169 L 1853,168 L 1845,168 L 1844,170 Z" fill="#094a9a" fill-rule="evenodd"/>
  <path d="M 1142,177 L 1140,176 L 1139,174 L 1136,173 L 1135,171 L 1133,171 L 1132,169 L 1129,167 L 1129,166 L 1126,166 L 1124,164 L 1124,163 L 1117,163 L 1116,161 L 1114,160 L 1111,160 L 1110,158 L 1104,158 L 1103,157 L 1103,155 L 1097,155 L 1096,153 L 1086,153 L 1085,152 L 1075,152 L 1074,153 L 1067,153 L 1065,155 L 1060,155 L 1060,156 L 1058,158 L 1053,158 L 1053,159 L 1052,160 L 1050,160 L 1048,163 L 1045,163 L 1045,164 L 1043,165 L 1041,168 L 1039,168 L 1039,172 L 1042,173 L 1044,175 L 1048,175 L 1050,178 L 1052,178 L 1054,180 L 1056,180 L 1058,183 L 1064,186 L 1065,188 L 1067,189 L 1067,191 L 1069,191 L 1070,192 L 1070,195 L 1071,195 L 1072,197 L 1075,199 L 1075,203 L 1076,203 L 1078,205 L 1078,214 L 1075,218 L 1075,222 L 1074,223 L 1073,222 L 1072,223 L 1072,225 L 1070,226 L 1070,230 L 1068,231 L 1067,233 L 1067,235 L 1065,236 L 1064,238 L 1063,238 L 1063,240 L 1060,244 L 1060,245 L 1059,246 L 1057,246 L 1057,248 L 1055,249 L 1054,251 L 1052,251 L 1052,253 L 1050,254 L 1050,255 L 1048,257 L 1049,258 L 1051,258 L 1052,256 L 1054,256 L 1056,255 L 1057,253 L 1061,253 L 1063,250 L 1066,250 L 1067,248 L 1069,248 L 1069,246 L 1070,245 L 1074,245 L 1075,243 L 1080,243 L 1081,241 L 1083,240 L 1087,240 L 1088,238 L 1093,238 L 1094,237 L 1095,238 L 1098,235 L 1109,235 L 1110,234 L 1116,234 L 1117,235 L 1121,235 L 1126,238 L 1131,238 L 1133,236 L 1135,235 L 1139,235 L 1141,232 L 1143,232 L 1143,231 L 1145,230 L 1145,228 L 1147,227 L 1147,226 L 1149,224 L 1150,224 L 1150,220 L 1152,218 L 1152,200 L 1150,198 L 1150,194 L 1148,194 L 1147,193 L 1147,189 L 1145,188 L 1145,183 L 1142,180 Z" fill="#094a9a" fill-rule="evenodd"/>
  <path d="M 1683,119 L 1680,124 L 1672,127 L 1672,136 L 1687,139 L 1707,161 L 1714,181 L 1714,191 L 1720,202 L 1722,219 L 1746,289 L 1746,299 L 1657,344 L 1635,350 L 1626,350 L 1623,345 L 1616,345 L 1611,350 L 1610,359 L 1634,381 L 1647,388 L 1677,393 L 1660,411 L 1662,414 L 1700,393 L 1731,370 L 1762,354 L 1769,363 L 1771,380 L 1774,381 L 1776,395 L 1780,398 L 1787,430 L 1790,431 L 1808,485 L 1829,534 L 1829,541 L 1813,567 L 1787,599 L 1851,599 L 1855,596 L 1859,599 L 1928,599 L 1901,560 L 1893,544 L 1893,537 L 1924,481 L 1937,442 L 1947,428 L 1947,415 L 1942,404 L 1931,392 L 1921,386 L 1909,384 L 1898,376 L 1878,379 L 1870,393 L 1877,396 L 1883,405 L 1883,422 L 1861,478 L 1856,477 L 1820,396 L 1802,335 L 1832,321 L 1851,318 L 1861,305 L 1861,295 L 1856,285 L 1841,275 L 1826,275 L 1818,270 L 1805,270 L 1794,280 L 1785,280 L 1761,192 L 1761,158 L 1752,142 L 1734,127 L 1712,116 L 1694,114 Z" fill="#094a9a" fill-rule="evenodd"/>
  <path d="M 602,113 L 595,117 L 594,121 L 591,121 L 589,124 L 585,124 L 580,129 L 577,129 L 569,140 L 569,146 L 572,149 L 583,149 L 590,152 L 597,158 L 598,162 L 600,163 L 600,167 L 602,168 L 603,185 L 605,187 L 602,283 L 603,343 L 605,345 L 605,365 L 600,369 L 600,599 L 682,599 L 682,556 L 680,555 L 678,535 L 680,530 L 680,283 L 682,282 L 683,233 L 685,230 L 685,210 L 688,206 L 690,192 L 692,191 L 693,172 L 690,167 L 688,155 L 683,148 L 677,144 L 677,142 L 667,135 L 663,135 L 661,132 L 658,132 L 648,124 L 640,124 L 638,121 L 634,121 L 633,119 L 626,119 L 622,116 L 613,116 L 609,113 Z" fill="#094a9a" fill-rule="evenodd"/>
  <path d="M 606,394 L 607,395 L 607,423 L 608,424 L 607,425 L 607,432 L 608,433 L 608,439 L 607,440 L 607,446 L 606,447 L 605,446 L 605,442 L 604,441 L 604,433 L 605,432 L 605,428 L 604,427 L 604,397 L 605,396 L 605,395 Z" fill="#094a9a" fill-rule="evenodd"/>
  <path d="M 676,385 L 677,386 L 677,387 L 678,388 L 678,409 L 677,410 L 676,410 L 675,409 L 675,408 L 674,407 L 674,402 L 675,401 L 675,386 Z" fill="#094a9a" fill-rule="evenodd"/>
</svg>
