<svg xmlns="http://www.w3.org/2000/svg" viewBox="0 0 3400 850">
  <path d="M 441,849 L 1128,848 L 1045,829 L 915,811 L 847,806 L 737,806 L 740,809 L 803,810 L 868,817 L 931,828 L 944,833 L 959,833 L 991,843 L 980,844 L 966,839 L 939,837 L 936,834 L 911,834 L 853,826 L 701,828 L 719,823 L 764,822 L 768,819 L 764,816 L 659,816 L 549,828 Z" fill="#094a9a" fill-rule="evenodd"/>
  <path d="M 993,845 L 994,844 L 998,844 L 999,845 L 998,846 L 994,846 Z" fill="#094a9a" fill-rule="evenodd"/>
  <path d="M 3348,790 L 3348,793 L 3346,795 L 3345,795 L 3345,797 L 3344,798 L 3343,798 L 3343,799 L 3341,801 L 3340,801 L 3340,802 L 3337,805 L 3337,807 L 3336,808 L 3335,808 L 3335,809 L 3333,811 L 3332,811 L 3332,813 L 3331,814 L 3330,814 L 3330,815 L 3329,816 L 3328,816 L 3327,817 L 3327,818 L 3326,819 L 3326,820 L 3325,821 L 3324,821 L 3324,823 L 3323,824 L 3322,824 L 3321,825 L 3321,826 L 3320,827 L 3319,827 L 3319,828 L 3318,829 L 3316,829 L 3316,831 L 3315,832 L 3314,832 L 3314,833 L 3310,837 L 3310,838 L 3309,839 L 3308,839 L 3308,841 L 3307,842 L 3305,842 L 3305,844 L 3304,845 L 3303,845 L 3303,846 L 3302,847 L 3300,847 L 3300,849 L 3326,849 L 3326,845 L 3327,844 L 3326,843 L 3327,842 L 3328,842 L 3328,840 L 3329,839 L 3329,838 L 3331,836 L 3331,834 L 3332,833 L 3333,833 L 3333,830 L 3334,829 L 3334,828 L 3336,826 L 3336,824 L 3337,823 L 3338,823 L 3339,822 L 3339,821 L 3340,820 L 3340,818 L 3341,817 L 3341,816 L 3342,815 L 3343,815 L 3343,813 L 3344,812 L 3344,807 L 3346,805 L 3346,798 L 3347,797 L 3347,796 L 3348,795 L 3348,794 L 3349,793 L 3349,791 Z" fill="#094a9a" fill-rule="evenodd"/>
  <path d="M 3350,788 L 3350,789 L 3351,789 L 3351,788 Z" fill="#094a9a" fill-rule="evenodd"/>
  <path d="M 3364,767 L 3363,767 L 3363,768 Z" fill="#094a9a" fill-rule="evenodd"/>
  <path d="M 3371,752 L 3371,755 L 3372,756 L 3372,754 L 3371,753 Z" fill="#094a9a" fill-rule="evenodd"/>
  <path d="M 3368,658 L 3368,660 L 3367,661 L 3367,665 L 3366,666 L 3366,685 L 3364,688 L 3364,692 L 3363,693 L 3363,700 L 3360,704 L 3360,711 L 3358,714 L 3358,718 L 3355,722 L 3355,727 L 3353,728 L 3353,734 L 3352,735 L 3352,737 L 3350,738 L 3350,745 L 3348,746 L 3347,750 L 3345,751 L 3345,754 L 3342,757 L 3342,761 L 3340,762 L 3340,765 L 3337,768 L 3337,770 L 3335,772 L 3335,773 L 3333,775 L 3332,775 L 3332,779 L 3330,780 L 3329,784 L 3327,785 L 3327,788 L 3324,791 L 3324,792 L 3322,793 L 3321,797 L 3319,798 L 3319,800 L 3316,803 L 3316,805 L 3314,806 L 3314,807 L 3312,809 L 3311,809 L 3311,811 L 3308,814 L 3308,815 L 3306,816 L 3306,817 L 3304,819 L 3303,819 L 3303,822 L 3301,823 L 3299,826 L 3298,826 L 3298,828 L 3297,829 L 3295,829 L 3295,831 L 3293,832 L 3292,834 L 3291,834 L 3291,836 L 3287,840 L 3287,841 L 3285,842 L 3285,844 L 3284,845 L 3282,845 L 3282,846 L 3280,847 L 3280,849 L 3294,849 L 3294,848 L 3296,847 L 3298,844 L 3299,844 L 3299,842 L 3300,841 L 3302,841 L 3302,839 L 3304,838 L 3304,837 L 3306,835 L 3307,835 L 3310,829 L 3312,828 L 3313,826 L 3315,825 L 3315,823 L 3317,822 L 3317,821 L 3319,819 L 3320,819 L 3321,817 L 3322,817 L 3323,814 L 3325,812 L 3325,810 L 3328,808 L 3328,806 L 3333,800 L 3333,798 L 3335,796 L 3336,793 L 3338,792 L 3338,788 L 3343,781 L 3343,779 L 3345,777 L 3348,771 L 3348,767 L 3350,765 L 3351,765 L 3351,762 L 3353,760 L 3353,758 L 3357,750 L 3356,749 L 3358,747 L 3358,743 L 3359,742 L 3359,737 L 3361,736 L 3361,722 L 3362,721 L 3362,717 L 3364,713 L 3364,707 L 3366,706 L 3366,699 L 3367,698 L 3367,696 L 3368,695 L 3368,691 L 3369,690 L 3369,660 Z" fill="#094a9a" fill-rule="evenodd"/>
  <path d="M 3397,642 L 3397,648 L 3395,650 L 3395,654 L 3394,655 L 3394,661 L 3395,662 L 3394,663 L 3394,681 L 3393,682 L 3395,684 L 3395,681 L 3396,680 L 3396,678 L 3397,677 L 3397,674 L 3398,673 L 3398,649 L 3397,648 L 3398,647 L 3397,646 Z" fill="#094a9a" fill-rule="evenodd"/>
  <path d="M 2872,621 L 2872,625 L 2879,632 L 2880,638 L 2882,639 L 2882,643 L 2885,645 L 2885,651 L 2887,652 L 2887,656 L 2890,658 L 2890,663 L 2895,670 L 2895,674 L 2898,676 L 2898,678 L 2900,679 L 2900,682 L 2903,684 L 2903,687 L 2908,691 L 2911,698 L 2916,702 L 2916,704 L 2923,711 L 2925,711 L 2926,714 L 2928,714 L 2931,718 L 2933,718 L 2934,721 L 2941,724 L 2945,729 L 2951,732 L 2952,734 L 2956,734 L 2958,737 L 2962,737 L 2963,740 L 2967,740 L 2968,742 L 2974,742 L 2976,745 L 2985,747 L 2987,749 L 2986,750 L 2994,750 L 2997,753 L 3001,753 L 3002,755 L 3008,755 L 3013,758 L 3023,758 L 3026,761 L 3036,761 L 3038,763 L 3056,763 L 3057,765 L 3067,765 L 3068,766 L 3097,765 L 3099,763 L 3115,763 L 3116,761 L 3122,760 L 3125,761 L 3127,758 L 3138,758 L 3139,756 L 3142,755 L 3143,756 L 3143,754 L 3146,753 L 3146,751 L 3152,747 L 3154,744 L 3156,735 L 3159,734 L 3158,733 L 3159,725 L 3156,723 L 3156,720 L 3151,712 L 3149,711 L 3146,704 L 3139,701 L 3138,699 L 3132,699 L 3130,696 L 3129,697 L 3126,696 L 3125,694 L 3122,694 L 3107,676 L 3092,662 L 3092,660 L 3089,659 L 3086,654 L 3085,654 L 3085,661 L 3083,663 L 3081,658 L 3079,658 L 3079,684 L 3080,685 L 3079,687 L 3080,690 L 3082,691 L 3082,696 L 3077,701 L 3072,702 L 3070,704 L 3020,704 L 3018,702 L 3002,701 L 3001,699 L 2991,699 L 2988,696 L 2981,696 L 2980,694 L 2975,694 L 2972,691 L 2968,691 L 2967,689 L 2961,688 L 2959,686 L 2956,686 L 2954,683 L 2947,681 L 2946,679 L 2942,678 L 2933,669 L 2929,668 L 2928,665 L 2926,665 L 2920,659 L 2920,656 L 2918,653 L 2912,648 L 2912,645 L 2910,644 L 2910,642 L 2907,638 L 2907,634 L 2905,633 L 2902,626 L 2900,626 L 2899,624 L 2895,623 L 2893,621 L 2887,621 L 2886,619 L 2883,618 L 2875,618 Z" fill="#094a9a" fill-rule="evenodd"/>
  <path d="M 3395,614 L 3395,615 L 3394,616 L 3394,625 L 3395,626 L 3395,631 L 3395,628 L 3396,627 L 3396,624 L 3395,623 Z" fill="#094a9a" fill-rule="evenodd"/>
  <path d="M 694,678 L 684,664 L 683,652 L 673,644 L 664,642 L 660,634 L 650,626 L 622,626 L 606,616 L 579,613 L 552,619 L 546,623 L 489,626 L 480,629 L 479,634 L 457,642 L 425,645 L 422,642 L 429,641 L 432,637 L 425,637 L 389,650 L 378,650 L 377,647 L 360,650 L 336,663 L 315,668 L 295,665 L 275,673 L 243,678 L 239,681 L 216,682 L 253,652 L 254,647 L 187,694 L 159,704 L 152,704 L 151,707 L 129,709 L 122,705 L 105,707 L 97,704 L 82,710 L 72,729 L 84,752 L 93,761 L 104,766 L 108,773 L 121,784 L 138,787 L 160,799 L 195,802 L 205,799 L 227,784 L 252,781 L 258,776 L 275,771 L 285,763 L 296,761 L 328,745 L 341,745 L 344,742 L 366,737 L 368,734 L 382,732 L 383,729 L 388,729 L 396,719 L 417,709 L 425,710 L 396,726 L 415,724 L 438,716 L 449,716 L 482,703 L 513,698 L 528,700 L 480,726 L 511,721 L 514,718 L 581,713 L 619,713 L 653,718 L 673,714 L 686,705 L 691,692 L 694,691 Z" fill="#094a9a" fill-rule="evenodd"/>
  <path d="M 424,707 L 425,706 L 426,706 L 427,707 L 427,708 L 426,709 L 425,709 L 424,708 Z" fill="#094a9a" fill-rule="evenodd"/>
  <path d="M 2839,602 L 2836,603 L 2836,604 L 2835,605 L 2835,607 L 2834,608 L 2832,608 L 2832,610 L 2831,611 L 2830,611 L 2830,612 L 2829,613 L 2827,613 L 2827,615 L 2826,616 L 2825,616 L 2825,619 L 2823,621 L 2823,624 L 2821,626 L 2820,626 L 2820,635 L 2817,639 L 2817,643 L 2816,644 L 2815,644 L 2814,649 L 2813,650 L 2812,650 L 2812,654 L 2809,657 L 2809,659 L 2808,660 L 2807,660 L 2807,664 L 2806,665 L 2805,665 L 2803,668 L 2802,668 L 2802,669 L 2800,672 L 2799,672 L 2798,673 L 2796,673 L 2796,675 L 2795,676 L 2793,676 L 2793,677 L 2792,678 L 2791,678 L 2791,680 L 2790,681 L 2789,681 L 2789,683 L 2788,684 L 2788,697 L 2791,700 L 2791,705 L 2794,707 L 2794,711 L 2795,711 L 2796,712 L 2796,716 L 2799,719 L 2799,721 L 2800,721 L 2801,722 L 2801,724 L 2802,725 L 2801,726 L 2802,726 L 2804,728 L 2804,729 L 2805,729 L 2806,730 L 2806,731 L 2807,732 L 2807,734 L 2808,734 L 2809,735 L 2809,736 L 2812,738 L 2812,740 L 2816,740 L 2817,741 L 2817,742 L 2824,742 L 2824,741 L 2825,740 L 2826,740 L 2828,737 L 2831,736 L 2831,735 L 2832,734 L 2834,734 L 2834,733 L 2835,732 L 2835,730 L 2836,729 L 2837,729 L 2837,725 L 2838,724 L 2840,724 L 2840,721 L 2842,719 L 2842,710 L 2843,709 L 2845,709 L 2845,704 L 2846,703 L 2847,703 L 2847,699 L 2848,698 L 2848,697 L 2849,696 L 2850,696 L 2850,680 L 2852,678 L 2852,671 L 2853,670 L 2853,667 L 2855,665 L 2855,660 L 2858,656 L 2858,650 L 2861,648 L 2861,642 L 2862,641 L 2863,641 L 2863,639 L 2864,638 L 2865,638 L 2865,637 L 2866,636 L 2866,634 L 2865,633 L 2864,633 L 2863,634 L 2862,634 L 2862,635 L 2860,637 L 2857,637 L 2857,638 L 2856,639 L 2854,639 L 2854,640 L 2852,642 L 2851,642 L 2851,644 L 2850,645 L 2848,645 L 2848,646 L 2847,647 L 2843,647 L 2842,646 L 2842,637 L 2841,637 L 2840,636 L 2840,629 L 2837,627 L 2837,624 L 2834,620 L 2834,614 L 2836,612 L 2837,612 L 2836,611 L 2837,610 L 2837,608 L 2838,607 L 2839,607 L 2839,606 L 2840,605 L 2840,603 Z" fill="#094a9a" fill-rule="evenodd"/>
  <path d="M 2777,595 L 2774,595 L 2769,590 L 2763,590 L 2761,587 L 2752,585 L 2748,582 L 2729,582 L 2728,584 L 2727,583 L 2724,584 L 2719,589 L 2719,591 L 2716,592 L 2714,595 L 2705,598 L 2704,600 L 2700,601 L 2699,603 L 2692,606 L 2691,608 L 2687,608 L 2681,613 L 2677,613 L 2676,616 L 2672,616 L 2666,621 L 2660,623 L 2658,626 L 2654,626 L 2649,631 L 2646,631 L 2640,637 L 2640,640 L 2647,641 L 2648,643 L 2653,644 L 2678,643 L 2679,641 L 2686,641 L 2689,638 L 2693,638 L 2694,636 L 2697,636 L 2706,630 L 2713,630 L 2714,628 L 2716,631 L 2716,633 L 2713,635 L 2713,644 L 2708,650 L 2708,657 L 2705,658 L 2705,662 L 2703,663 L 2703,667 L 2700,670 L 2695,683 L 2691,687 L 2685,689 L 2684,691 L 2679,691 L 2676,694 L 2667,694 L 2666,696 L 2664,696 L 2660,692 L 2660,688 L 2658,687 L 2658,681 L 2655,680 L 2655,675 L 2653,674 L 2653,670 L 2650,667 L 2650,664 L 2645,659 L 2645,656 L 2642,653 L 2642,650 L 2639,648 L 2639,645 L 2635,641 L 2635,639 L 2633,639 L 2629,632 L 2624,628 L 2624,626 L 2622,626 L 2621,623 L 2616,620 L 2616,613 L 2611,613 L 2610,611 L 2609,613 L 2607,613 L 2606,621 L 2604,622 L 2604,651 L 2606,652 L 2607,675 L 2609,676 L 2609,685 L 2612,687 L 2612,691 L 2614,692 L 2615,698 L 2617,700 L 2617,721 L 2619,721 L 2620,724 L 2625,727 L 2625,729 L 2630,729 L 2631,732 L 2635,732 L 2638,735 L 2638,737 L 2646,745 L 2648,745 L 2654,753 L 2664,756 L 2671,755 L 2676,750 L 2676,741 L 2680,737 L 2686,737 L 2690,734 L 2696,734 L 2697,732 L 2702,732 L 2705,729 L 2730,729 L 2731,727 L 2736,726 L 2737,724 L 2741,724 L 2741,722 L 2746,716 L 2746,712 L 2751,706 L 2751,701 L 2749,700 L 2748,693 L 2749,685 L 2754,680 L 2757,673 L 2762,669 L 2765,661 L 2775,645 L 2777,644 L 2777,642 L 2781,641 L 2783,638 L 2787,636 L 2787,634 L 2790,632 L 2790,629 L 2793,627 L 2793,614 L 2790,612 L 2789,608 Z" fill="#094a9a" fill-rule="evenodd"/>
  <path d="M 3110,576 L 3110,578 L 3112,578 L 3113,579 L 3113,580 L 3114,580 L 3115,581 L 3118,581 L 3121,584 L 3122,584 L 3124,586 L 3125,586 L 3126,587 L 3126,588 L 3129,590 L 3129,593 L 3131,595 L 3131,596 L 3132,597 L 3132,600 L 3131,601 L 3131,602 L 3130,603 L 3129,603 L 3129,604 L 3127,606 L 3126,606 L 3126,607 L 3125,608 L 3123,608 L 3123,609 L 3121,611 L 3119,611 L 3119,612 L 3118,613 L 3116,613 L 3115,614 L 3114,614 L 3112,616 L 3110,616 L 3108,618 L 3107,618 L 3106,619 L 3104,619 L 3104,620 L 3102,622 L 3128,622 L 3129,623 L 3131,623 L 3132,624 L 3132,625 L 3141,625 L 3143,627 L 3146,627 L 3147,628 L 3151,628 L 3152,629 L 3152,630 L 3159,630 L 3160,631 L 3161,631 L 3162,632 L 3162,633 L 3164,633 L 3166,635 L 3168,635 L 3169,636 L 3170,636 L 3171,637 L 3171,638 L 3175,638 L 3176,639 L 3176,641 L 3191,641 L 3191,640 L 3193,638 L 3198,638 L 3198,637 L 3199,636 L 3200,636 L 3200,635 L 3202,633 L 3203,633 L 3203,631 L 3204,630 L 3205,630 L 3205,629 L 3206,628 L 3206,626 L 3207,625 L 3208,625 L 3208,613 L 3207,613 L 3206,612 L 3206,610 L 3205,609 L 3205,606 L 3203,604 L 3203,600 L 3201,600 L 3200,599 L 3200,597 L 3199,597 L 3198,596 L 3198,595 L 3197,595 L 3196,594 L 3196,592 L 3193,589 L 3192,589 L 3191,588 L 3191,587 L 3189,587 L 3188,586 L 3188,585 L 3187,585 L 3185,583 L 3185,582 L 3181,582 L 3180,581 L 3180,580 L 3171,580 L 3170,581 L 3160,581 L 3159,580 L 3156,580 L 3155,579 L 3147,579 L 3146,578 L 3146,577 L 3135,577 L 3134,576 L 3132,576 L 3131,575 L 3118,575 L 3117,576 Z" fill="#094a9a" fill-rule="evenodd"/>
  <path d="M 1512,574 L 1509,574 L 1507,577 L 1505,577 L 1504,579 L 1500,581 L 1500,601 L 1498,602 L 1498,607 L 1497,608 L 1495,608 L 1495,615 L 1493,616 L 1493,622 L 1491,624 L 1490,624 L 1489,626 L 1489,630 L 1487,632 L 1487,638 L 1486,639 L 1484,639 L 1484,643 L 1482,644 L 1482,649 L 1481,650 L 1479,650 L 1479,652 L 1477,653 L 1477,656 L 1475,658 L 1474,658 L 1468,668 L 1466,668 L 1465,670 L 1461,670 L 1461,672 L 1459,673 L 1458,677 L 1456,678 L 1456,682 L 1455,683 L 1455,687 L 1456,688 L 1456,698 L 1458,699 L 1459,701 L 1459,704 L 1461,705 L 1461,708 L 1463,708 L 1464,709 L 1464,713 L 1466,714 L 1466,718 L 1467,719 L 1468,718 L 1469,719 L 1469,723 L 1472,725 L 1474,729 L 1476,729 L 1477,731 L 1479,732 L 1484,732 L 1485,734 L 1486,734 L 1487,732 L 1491,732 L 1493,729 L 1497,729 L 1497,727 L 1499,726 L 1499,724 L 1500,723 L 1502,723 L 1502,715 L 1504,714 L 1504,710 L 1506,708 L 1507,708 L 1507,707 L 1510,704 L 1510,703 L 1512,702 L 1513,699 L 1515,698 L 1515,695 L 1517,694 L 1517,689 L 1519,687 L 1520,687 L 1520,681 L 1522,680 L 1522,676 L 1523,675 L 1523,673 L 1525,672 L 1525,668 L 1527,666 L 1527,663 L 1528,662 L 1528,656 L 1530,655 L 1530,650 L 1531,649 L 1531,647 L 1533,646 L 1532,645 L 1533,644 L 1533,639 L 1536,637 L 1536,634 L 1538,633 L 1538,629 L 1541,625 L 1541,621 L 1543,620 L 1543,616 L 1544,615 L 1546,615 L 1546,611 L 1548,609 L 1549,606 L 1551,605 L 1551,603 L 1554,599 L 1553,597 L 1550,598 L 1547,604 L 1545,605 L 1544,607 L 1542,608 L 1542,609 L 1540,611 L 1539,611 L 1539,612 L 1537,613 L 1537,614 L 1535,616 L 1532,616 L 1530,612 L 1530,603 L 1528,602 L 1528,598 L 1527,597 L 1527,595 L 1525,594 L 1525,592 L 1523,591 L 1522,588 L 1519,587 L 1517,585 L 1517,584 L 1515,583 L 1515,580 L 1513,579 L 1513,575 Z" fill="#094a9a" fill-rule="evenodd"/>
  <path d="M 2945,586 L 2947,588 L 2947,596 L 2948,596 L 2950,598 L 2950,605 L 2951,605 L 2952,606 L 2952,612 L 2954,612 L 2955,613 L 2955,617 L 2957,619 L 2958,622 L 2959,622 L 2960,623 L 2960,625 L 2962,625 L 2963,626 L 2963,628 L 2965,628 L 2966,629 L 2966,630 L 2967,630 L 2968,631 L 2968,633 L 2969,633 L 2970,634 L 2970,635 L 2973,637 L 2973,638 L 2977,638 L 2978,639 L 2978,641 L 2982,641 L 2983,642 L 2983,643 L 2987,643 L 2988,644 L 2993,644 L 2994,645 L 2994,646 L 3006,646 L 3006,645 L 3007,644 L 3009,644 L 3010,643 L 3012,643 L 3012,642 L 3013,641 L 3016,641 L 3016,640 L 3017,639 L 3018,639 L 3019,638 L 3021,638 L 3021,635 L 3023,633 L 3024,633 L 3024,631 L 3025,630 L 3026,630 L 3026,626 L 3027,625 L 3027,624 L 3029,622 L 3029,619 L 3028,619 L 3026,617 L 3026,608 L 3027,607 L 3028,607 L 3028,606 L 3029,605 L 3029,603 L 3030,602 L 3031,602 L 3031,601 L 3032,600 L 3032,598 L 3033,597 L 3034,597 L 3037,594 L 3039,594 L 3039,592 L 3040,591 L 3042,591 L 3042,590 L 3046,586 L 3047,586 L 3047,585 L 3049,583 L 3050,583 L 3050,582 L 3051,581 L 3055,581 L 3055,580 L 3056,579 L 3058,579 L 3059,578 L 3060,578 L 3060,577 L 3063,575 L 3062,574 L 3061,574 L 3056,577 L 3046,577 L 3046,578 L 3045,579 L 3036,579 L 3035,580 L 3033,580 L 3031,582 L 3022,582 L 3022,583 L 3021,584 L 3018,584 L 3017,585 L 3011,585 L 3009,587 L 3002,587 L 3002,588 L 3000,590 L 2989,590 L 2987,587 L 2984,587 L 2982,585 L 2979,585 L 2977,583 L 2977,582 L 2976,582 L 2974,580 L 2974,579 L 2973,579 L 2972,578 L 2972,577 L 2968,577 L 2967,576 L 2966,576 L 2964,574 L 2963,574 L 2962,573 L 2962,572 L 2953,572 L 2951,574 L 2950,574 L 2950,575 L 2949,576 L 2947,576 L 2946,577 L 2946,578 L 2945,579 Z" fill="#094a9a" fill-rule="evenodd"/>
  <path d="M 1567,572 L 1565,581 L 1575,582 L 1576,609 L 1575,625 L 1573,626 L 1570,646 L 1563,660 L 1563,668 L 1573,698 L 1584,714 L 1596,708 L 1598,701 L 1603,698 L 1603,694 L 1608,690 L 1610,678 L 1614,674 L 1614,658 L 1616,656 L 1615,623 L 1621,603 L 1624,602 L 1626,590 L 1629,589 L 1629,585 L 1650,554 L 1662,547 L 1669,554 L 1669,565 L 1666,569 L 1664,603 L 1661,608 L 1659,672 L 1669,704 L 1687,724 L 1700,729 L 1701,732 L 1707,732 L 1724,740 L 1749,742 L 1752,745 L 1816,745 L 1817,742 L 1832,742 L 1846,734 L 1862,732 L 1881,716 L 1884,694 L 1881,684 L 1868,672 L 1863,650 L 1850,635 L 1850,629 L 1847,628 L 1843,613 L 1841,613 L 1843,622 L 1838,623 L 1827,587 L 1825,587 L 1825,622 L 1828,624 L 1825,626 L 1825,659 L 1822,672 L 1817,680 L 1800,686 L 1786,686 L 1778,689 L 1740,689 L 1714,681 L 1704,672 L 1700,664 L 1699,634 L 1702,600 L 1704,599 L 1704,587 L 1707,586 L 1709,572 L 1712,571 L 1714,565 L 1714,548 L 1709,544 L 1707,538 L 1703,538 L 1700,533 L 1684,528 L 1664,528 L 1656,539 L 1638,556 L 1638,560 L 1633,564 L 1630,571 L 1622,577 L 1622,581 L 1616,587 L 1606,569 L 1598,564 L 1592,564 L 1590,561 L 1578,562 Z" fill="#094a9a" fill-rule="evenodd"/>
  <path d="M 3355,512 L 3355,513 L 3356,513 L 3356,512 Z" fill="#094a9a" fill-rule="evenodd"/>
  <path d="M 3357,510 L 3358,511 L 3359,510 Z" fill="#094a9a" fill-rule="evenodd"/>
  <path d="M 2749,520 L 2747,520 L 2746,519 L 2746,517 L 2742,517 L 2740,514 L 2737,514 L 2736,513 L 2736,512 L 2729,512 L 2728,511 L 2726,511 L 2723,509 L 2705,509 L 2705,511 L 2704,512 L 2700,512 L 2700,513 L 2699,514 L 2698,514 L 2696,517 L 2694,517 L 2691,520 L 2687,520 L 2687,521 L 2686,522 L 2683,522 L 2681,525 L 2677,525 L 2677,526 L 2675,528 L 2671,528 L 2668,530 L 2666,530 L 2662,533 L 2659,533 L 2659,534 L 2658,535 L 2654,535 L 2654,536 L 2652,538 L 2646,538 L 2646,539 L 2645,540 L 2639,540 L 2638,541 L 2633,541 L 2632,540 L 2632,535 L 2628,535 L 2628,536 L 2626,538 L 2622,538 L 2622,539 L 2621,540 L 2620,540 L 2619,541 L 2617,541 L 2617,545 L 2616,546 L 2615,546 L 2615,553 L 2616,553 L 2617,554 L 2617,558 L 2619,558 L 2620,559 L 2620,561 L 2621,561 L 2622,562 L 2622,563 L 2624,563 L 2626,566 L 2629,566 L 2630,567 L 2630,568 L 2631,568 L 2633,570 L 2633,571 L 2635,571 L 2636,572 L 2636,573 L 2639,574 L 2640,575 L 2640,576 L 2652,576 L 2654,578 L 2653,579 L 2653,581 L 2652,582 L 2651,582 L 2651,583 L 2650,584 L 2649,584 L 2648,585 L 2648,586 L 2647,587 L 2646,587 L 2646,588 L 2644,590 L 2643,590 L 2643,591 L 2642,592 L 2641,592 L 2639,595 L 2638,595 L 2638,596 L 2639,597 L 2640,596 L 2643,596 L 2645,594 L 2648,594 L 2651,591 L 2655,591 L 2655,590 L 2656,589 L 2658,589 L 2658,588 L 2660,586 L 2663,586 L 2663,585 L 2664,584 L 2665,584 L 2666,583 L 2668,583 L 2668,582 L 2669,581 L 2671,581 L 2672,580 L 2673,580 L 2675,578 L 2676,578 L 2676,577 L 2677,576 L 2681,576 L 2681,575 L 2682,574 L 2684,574 L 2685,573 L 2686,573 L 2686,572 L 2687,571 L 2689,571 L 2690,570 L 2691,570 L 2691,569 L 2692,568 L 2694,568 L 2694,567 L 2695,566 L 2698,566 L 2700,563 L 2702,563 L 2703,562 L 2704,562 L 2709,558 L 2712,558 L 2714,555 L 2718,555 L 2718,554 L 2719,553 L 2728,553 L 2730,550 L 2738,550 L 2740,548 L 2743,547 L 2743,546 L 2744,545 L 2746,545 L 2746,544 L 2748,542 L 2749,542 L 2749,541 L 2751,539 L 2752,536 L 2754,534 L 2754,528 L 2753,528 L 2751,526 L 2751,523 L 2750,523 L 2749,522 Z" fill="#094a9a" fill-rule="evenodd"/>
  <path d="M 3348,504 L 3348,505 L 3349,505 L 3350,506 L 3350,508 L 3352,508 L 3353,509 L 3353,510 L 3354,510 L 3354,509 L 3355,508 L 3356,508 L 3355,508 L 3354,507 L 3352,507 L 3351,506 L 3351,504 Z" fill="#094a9a" fill-rule="evenodd"/>
  <path d="M 2265,465 L 2262,465 L 2260,462 L 2250,457 L 2242,457 L 2241,455 L 2219,455 L 2203,470 L 2199,470 L 2198,473 L 2187,478 L 2185,481 L 2181,481 L 2164,493 L 2160,493 L 2153,499 L 2149,499 L 2140,507 L 2133,500 L 2132,496 L 2129,496 L 2117,483 L 2108,483 L 2103,488 L 2105,500 L 2110,509 L 2113,529 L 2116,533 L 2116,549 L 2113,553 L 2113,563 L 2116,567 L 2116,574 L 2121,584 L 2124,585 L 2126,593 L 2131,598 L 2131,602 L 2136,607 L 2141,607 L 2142,610 L 2151,610 L 2159,600 L 2162,599 L 2162,592 L 2165,589 L 2172,589 L 2187,581 L 2188,586 L 2178,596 L 2178,599 L 2172,603 L 2168,610 L 2149,626 L 2140,637 L 2130,644 L 2098,660 L 2090,660 L 2089,655 L 2083,655 L 2078,660 L 2075,660 L 2074,664 L 2069,668 L 2069,672 L 2066,674 L 2066,684 L 2075,697 L 2077,705 L 2085,714 L 2098,721 L 2115,721 L 2116,719 L 2122,718 L 2136,703 L 2160,683 L 2169,680 L 2170,677 L 2180,672 L 2183,667 L 2187,667 L 2194,659 L 2198,659 L 2209,649 L 2216,646 L 2221,641 L 2224,641 L 2225,638 L 2229,638 L 2233,633 L 2245,628 L 2246,625 L 2250,625 L 2262,615 L 2265,615 L 2269,610 L 2273,610 L 2286,594 L 2285,587 L 2281,592 L 2277,592 L 2275,595 L 2273,593 L 2282,583 L 2289,579 L 2291,575 L 2280,579 L 2270,587 L 2266,587 L 2264,584 L 2256,585 L 2255,587 L 2243,590 L 2237,595 L 2223,600 L 2221,603 L 2204,608 L 2203,611 L 2195,612 L 2196,608 L 2204,600 L 2208,599 L 2258,551 L 2257,538 L 2254,538 L 2247,532 L 2247,527 L 2252,517 L 2255,516 L 2255,513 L 2261,508 L 2261,504 L 2273,492 L 2275,487 L 2273,473 L 2271,473 Z" fill="#094a9a" fill-rule="evenodd"/>
  <path d="M 2259,591 L 2260,590 L 2261,591 L 2260,592 Z" fill="#094a9a" fill-rule="evenodd"/>
  <path d="M 2208,498 L 2209,499 L 2209,506 L 2208,507 L 2208,508 L 2207,509 L 2207,511 L 2206,512 L 2206,513 L 2205,514 L 2204,514 L 2204,519 L 2203,520 L 2202,520 L 2202,522 L 2201,523 L 2201,524 L 2200,525 L 2199,525 L 2199,528 L 2197,530 L 2197,531 L 2195,533 L 2194,533 L 2194,536 L 2192,538 L 2191,538 L 2191,539 L 2190,540 L 2189,540 L 2188,541 L 2188,542 L 2187,543 L 2186,543 L 2186,544 L 2185,545 L 2184,545 L 2182,547 L 2181,547 L 2180,548 L 2178,548 L 2175,551 L 2172,551 L 2172,552 L 2171,553 L 2170,553 L 2169,554 L 2165,554 L 2165,555 L 2164,556 L 2160,556 L 2159,555 L 2159,551 L 2157,549 L 2157,540 L 2156,539 L 2156,538 L 2156,539 L 2155,540 L 2154,539 L 2154,533 L 2153,532 L 2153,531 L 2151,529 L 2151,525 L 2149,525 L 2148,524 L 2148,520 L 2147,520 L 2146,519 L 2146,514 L 2148,512 L 2149,513 L 2153,513 L 2154,514 L 2177,514 L 2178,513 L 2179,513 L 2181,511 L 2185,511 L 2185,510 L 2187,508 L 2190,508 L 2190,507 L 2191,506 L 2194,506 L 2195,505 L 2195,504 L 2196,503 L 2201,503 L 2201,502 L 2203,500 L 2206,500 L 2206,499 L 2207,498 Z" fill="#094a9a" fill-rule="evenodd"/>
  <path d="M 3249,450 L 3246,450 L 3246,451 L 3245,452 L 3243,452 L 3242,453 L 3236,453 L 3236,454 L 3235,455 L 3231,455 L 3231,456 L 3235,456 L 3237,454 L 3240,454 L 3241,453 L 3247,453 L 3247,451 L 3248,450 Z" fill="#094a9a" fill-rule="evenodd"/>
  <path d="M 512,471 L 504,465 L 500,464 L 499,462 L 485,460 L 470,447 L 432,447 L 431,449 L 422,450 L 414,457 L 410,457 L 408,460 L 404,460 L 398,463 L 397,465 L 391,466 L 390,468 L 381,468 L 380,470 L 373,470 L 371,473 L 366,473 L 360,476 L 359,478 L 355,478 L 351,481 L 347,481 L 346,483 L 342,483 L 340,486 L 334,486 L 333,488 L 326,488 L 323,491 L 317,491 L 315,493 L 300,493 L 296,496 L 293,496 L 290,492 L 291,486 L 302,470 L 307,466 L 309,462 L 308,460 L 299,468 L 290,473 L 278,485 L 274,486 L 264,496 L 261,505 L 258,507 L 258,516 L 261,518 L 264,524 L 269,529 L 269,532 L 271,532 L 274,535 L 274,537 L 276,537 L 280,542 L 283,542 L 287,547 L 291,548 L 295,552 L 300,553 L 301,555 L 306,555 L 308,558 L 315,558 L 316,560 L 326,561 L 345,560 L 347,563 L 344,564 L 344,566 L 341,569 L 339,569 L 338,572 L 334,574 L 307,600 L 305,600 L 305,602 L 302,603 L 294,613 L 292,613 L 288,618 L 279,624 L 284,625 L 285,623 L 291,621 L 293,618 L 297,617 L 302,612 L 309,610 L 310,607 L 317,604 L 322,599 L 325,599 L 326,597 L 338,591 L 339,589 L 343,589 L 344,586 L 353,586 L 354,584 L 359,583 L 363,578 L 369,576 L 373,572 L 374,573 L 379,568 L 382,568 L 386,563 L 390,563 L 392,565 L 394,563 L 403,560 L 404,558 L 411,555 L 413,551 L 416,550 L 417,547 L 419,547 L 423,542 L 426,542 L 430,537 L 442,537 L 448,532 L 452,532 L 454,529 L 462,527 L 464,524 L 470,524 L 472,521 L 473,522 L 488,521 L 489,519 L 496,519 L 500,514 L 504,513 L 507,507 L 515,500 L 515,498 L 520,492 L 520,486 L 515,480 L 515,476 L 512,474 Z" fill="#094a9a" fill-rule="evenodd"/>
  <path d="M 2752,456 L 2751,455 L 2751,454 L 2750,454 L 2749,453 L 2748,450 L 2746,448 L 2746,446 L 2745,446 L 2743,444 L 2742,444 L 2741,443 L 2741,442 L 2739,442 L 2738,441 L 2737,441 L 2736,440 L 2736,439 L 2730,439 L 2728,436 L 2710,436 L 2709,435 L 2705,435 L 2704,436 L 2700,436 L 2699,437 L 2698,437 L 2698,438 L 2697,439 L 2693,439 L 2693,440 L 2692,441 L 2692,443 L 2691,444 L 2689,444 L 2688,445 L 2687,445 L 2687,446 L 2686,447 L 2684,447 L 2682,449 L 2679,450 L 2679,451 L 2678,452 L 2675,452 L 2673,455 L 2669,455 L 2669,456 L 2668,457 L 2665,457 L 2663,460 L 2659,460 L 2657,462 L 2654,462 L 2653,463 L 2651,463 L 2651,464 L 2650,465 L 2643,465 L 2642,466 L 2641,466 L 2639,468 L 2636,468 L 2635,467 L 2635,466 L 2634,465 L 2633,465 L 2631,462 L 2627,462 L 2626,463 L 2625,463 L 2625,464 L 2624,465 L 2622,465 L 2622,467 L 2621,468 L 2620,468 L 2620,477 L 2621,477 L 2622,478 L 2622,481 L 2623,482 L 2625,482 L 2628,485 L 2629,485 L 2630,486 L 2630,487 L 2632,487 L 2633,488 L 2633,490 L 2637,490 L 2638,491 L 2638,492 L 2640,492 L 2641,493 L 2642,493 L 2643,494 L 2643,495 L 2647,495 L 2649,498 L 2660,498 L 2661,499 L 2661,500 L 2668,500 L 2668,499 L 2669,498 L 2673,498 L 2674,499 L 2674,501 L 2673,502 L 2672,502 L 2672,503 L 2671,504 L 2669,504 L 2669,508 L 2668,509 L 2667,509 L 2667,511 L 2668,511 L 2668,509 L 2669,508 L 2673,508 L 2673,507 L 2674,506 L 2678,506 L 2678,504 L 2679,503 L 2683,503 L 2683,502 L 2685,500 L 2686,500 L 2686,499 L 2687,498 L 2691,498 L 2691,497 L 2693,495 L 2695,495 L 2698,492 L 2699,492 L 2699,491 L 2700,490 L 2703,490 L 2704,489 L 2704,488 L 2705,487 L 2707,487 L 2707,486 L 2708,485 L 2712,485 L 2712,484 L 2714,482 L 2717,482 L 2719,480 L 2723,480 L 2723,478 L 2724,477 L 2728,477 L 2730,475 L 2731,475 L 2732,474 L 2738,474 L 2738,473 L 2739,472 L 2744,472 L 2744,471 L 2745,470 L 2746,470 L 2746,468 L 2747,467 L 2748,467 L 2748,466 L 2749,465 L 2749,463 L 2750,462 L 2751,462 L 2751,459 L 2752,458 Z" fill="#094a9a" fill-rule="evenodd"/>
  <path d="M 1308,411 L 1303,416 L 1303,431 L 1305,432 L 1306,446 L 1316,466 L 1331,484 L 1331,490 L 1334,494 L 1334,508 L 1331,511 L 1331,528 L 1329,530 L 1329,543 L 1326,549 L 1326,569 L 1324,570 L 1323,593 L 1328,598 L 1326,605 L 1326,622 L 1324,623 L 1316,648 L 1313,650 L 1311,674 L 1300,694 L 1300,711 L 1326,755 L 1332,761 L 1351,766 L 1364,761 L 1375,747 L 1375,741 L 1377,740 L 1375,717 L 1385,700 L 1385,696 L 1388,695 L 1388,689 L 1390,688 L 1390,683 L 1393,682 L 1395,667 L 1398,665 L 1398,658 L 1403,648 L 1403,642 L 1406,640 L 1406,634 L 1411,625 L 1411,613 L 1414,610 L 1416,600 L 1419,596 L 1419,587 L 1421,586 L 1421,579 L 1424,575 L 1424,568 L 1426,567 L 1426,559 L 1428,557 L 1426,553 L 1429,535 L 1432,532 L 1434,518 L 1437,516 L 1437,507 L 1442,498 L 1444,479 L 1440,484 L 1435,500 L 1430,507 L 1430,513 L 1427,515 L 1427,519 L 1420,530 L 1420,534 L 1417,535 L 1417,539 L 1412,545 L 1407,557 L 1404,559 L 1404,563 L 1401,565 L 1399,571 L 1396,572 L 1396,576 L 1386,590 L 1383,599 L 1380,600 L 1376,609 L 1373,610 L 1371,617 L 1367,619 L 1365,625 L 1362,626 L 1362,630 L 1357,634 L 1349,645 L 1350,646 L 1344,647 L 1343,603 L 1345,601 L 1348,579 L 1351,574 L 1351,565 L 1354,563 L 1356,546 L 1359,544 L 1361,530 L 1364,529 L 1367,517 L 1370,515 L 1372,509 L 1375,508 L 1375,504 L 1390,489 L 1390,481 L 1393,480 L 1393,475 L 1390,474 L 1390,465 L 1382,452 L 1359,439 L 1350,439 L 1348,436 L 1334,434 L 1324,429 L 1313,420 L 1310,411 Z" fill="#094a9a" fill-rule="evenodd"/>
  <path d="M 1424,555 L 1424,554 L 1425,553 L 1426,553 L 1427,554 L 1425,556 Z" fill="#094a9a" fill-rule="evenodd"/>
  <path d="M 816,343 L 807,343 L 800,348 L 794,348 L 783,361 L 783,368 L 780,370 L 780,376 L 778,377 L 778,384 L 784,378 L 789,378 L 791,381 L 794,382 L 794,386 L 796,387 L 796,397 L 799,400 L 799,420 L 796,421 L 796,436 L 799,437 L 799,464 L 796,465 L 796,469 L 793,473 L 791,473 L 791,477 L 788,481 L 788,495 L 785,499 L 785,514 L 783,515 L 783,521 L 785,523 L 783,553 L 780,556 L 778,573 L 775,575 L 775,581 L 773,583 L 770,596 L 765,606 L 765,612 L 762,614 L 760,622 L 757,624 L 757,627 L 752,632 L 749,638 L 745,642 L 742,642 L 740,645 L 734,644 L 733,642 L 725,638 L 725,635 L 722,632 L 716,616 L 716,625 L 718,626 L 719,631 L 718,635 L 721,637 L 724,651 L 735,664 L 759,667 L 765,664 L 776,654 L 787,651 L 793,646 L 795,646 L 796,649 L 789,656 L 795,656 L 803,653 L 815,641 L 818,641 L 818,639 L 821,638 L 824,631 L 826,631 L 829,626 L 832,625 L 834,619 L 839,615 L 840,611 L 844,607 L 845,602 L 847,601 L 847,598 L 850,596 L 853,584 L 855,583 L 855,578 L 858,575 L 858,570 L 860,568 L 863,554 L 865,553 L 865,543 L 868,536 L 868,530 L 873,527 L 873,522 L 876,516 L 878,491 L 881,487 L 883,471 L 886,469 L 886,467 L 879,474 L 879,480 L 874,486 L 873,465 L 881,453 L 881,442 L 883,440 L 883,424 L 886,420 L 886,406 L 883,404 L 881,395 L 878,393 L 875,382 L 873,381 L 873,371 L 868,366 L 846,356 L 843,353 L 840,353 L 839,351 L 835,351 L 832,348 L 823,348 Z" fill="#094a9a" fill-rule="evenodd"/>
  <path d="M 805,636 L 806,637 L 804,639 L 804,641 L 803,642 L 801,642 L 801,644 L 800,645 L 799,644 L 799,646 L 798,647 L 796,647 L 795,646 L 795,642 L 796,641 L 798,641 L 798,640 L 800,638 L 800,637 L 801,636 Z" fill="#094a9a" fill-rule="evenodd"/>
  <path d="M 995,333 L 981,333 L 979,335 L 976,335 L 968,343 L 967,347 L 965,348 L 965,351 L 962,353 L 960,359 L 957,361 L 957,365 L 955,366 L 955,368 L 953,369 L 952,373 L 950,374 L 949,380 L 947,382 L 947,386 L 944,388 L 944,394 L 942,395 L 942,402 L 941,403 L 942,404 L 939,405 L 939,413 L 937,414 L 937,426 L 936,427 L 936,430 L 934,431 L 934,436 L 938,435 L 938,432 L 941,430 L 941,427 L 945,422 L 949,424 L 949,431 L 950,432 L 950,443 L 952,445 L 952,461 L 950,462 L 949,513 L 947,515 L 947,520 L 945,522 L 939,523 L 939,527 L 937,528 L 937,539 L 939,540 L 939,545 L 942,548 L 942,555 L 944,556 L 944,560 L 947,564 L 947,570 L 950,572 L 950,576 L 955,581 L 955,583 L 957,584 L 957,586 L 960,587 L 960,589 L 962,590 L 963,594 L 965,594 L 970,599 L 972,599 L 973,602 L 975,602 L 976,604 L 980,604 L 981,605 L 982,604 L 986,604 L 991,599 L 993,599 L 994,597 L 997,596 L 998,593 L 1005,586 L 1006,582 L 1008,581 L 1008,577 L 1010,576 L 1010,573 L 1013,570 L 1013,449 L 1011,448 L 1010,445 L 1010,429 L 1011,428 L 1011,416 L 1013,415 L 1013,374 L 1016,370 L 1016,353 L 1013,348 L 1003,338 L 998,335 L 996,335 Z" fill="#094a9a" fill-rule="evenodd"/>
  <path d="M 2803,359 L 2801,357 L 2800,351 L 2798,350 L 2797,346 L 2794,345 L 2793,343 L 2789,343 L 2788,341 L 2785,341 L 2780,338 L 2776,338 L 2773,335 L 2768,335 L 2767,333 L 2763,332 L 2762,330 L 2749,330 L 2746,333 L 2737,333 L 2736,335 L 2732,335 L 2729,338 L 2729,341 L 2724,343 L 2723,345 L 2719,345 L 2714,348 L 2708,348 L 2707,351 L 2700,351 L 2699,353 L 2695,353 L 2691,356 L 2687,356 L 2678,361 L 2674,361 L 2670,364 L 2665,364 L 2663,366 L 2659,366 L 2657,369 L 2653,369 L 2652,371 L 2648,371 L 2645,374 L 2636,374 L 2633,375 L 2632,377 L 2627,377 L 2626,379 L 2620,379 L 2619,382 L 2612,382 L 2609,385 L 2604,385 L 2603,387 L 2598,387 L 2596,389 L 2592,389 L 2590,392 L 2586,392 L 2582,395 L 2578,395 L 2577,397 L 2573,397 L 2570,400 L 2564,400 L 2563,402 L 2560,403 L 2552,403 L 2551,405 L 2542,405 L 2541,403 L 2536,403 L 2531,398 L 2529,398 L 2528,400 L 2524,400 L 2524,402 L 2521,406 L 2521,417 L 2532,428 L 2538,431 L 2539,433 L 2546,436 L 2551,441 L 2554,441 L 2555,443 L 2560,443 L 2568,446 L 2595,446 L 2596,444 L 2603,443 L 2607,438 L 2610,438 L 2612,435 L 2619,433 L 2620,431 L 2624,431 L 2626,428 L 2634,428 L 2636,425 L 2639,425 L 2640,423 L 2642,423 L 2646,420 L 2649,420 L 2651,417 L 2655,417 L 2656,415 L 2659,415 L 2664,410 L 2668,410 L 2670,407 L 2674,407 L 2677,404 L 2681,404 L 2682,402 L 2686,402 L 2687,399 L 2694,399 L 2695,397 L 2699,396 L 2700,394 L 2703,395 L 2703,399 L 2700,400 L 2696,405 L 2694,405 L 2692,409 L 2683,418 L 2680,419 L 2679,421 L 2680,423 L 2682,420 L 2686,420 L 2687,418 L 2691,417 L 2692,415 L 2696,415 L 2700,410 L 2704,410 L 2705,407 L 2713,404 L 2714,402 L 2717,402 L 2719,399 L 2723,399 L 2724,396 L 2728,396 L 2733,391 L 2736,391 L 2745,386 L 2749,386 L 2750,384 L 2757,383 L 2758,381 L 2764,381 L 2765,379 L 2769,378 L 2785,379 L 2790,378 L 2791,376 L 2795,376 L 2800,370 L 2801,366 L 2803,365 Z" fill="#094a9a" fill-rule="evenodd"/>
  <path d="M 1997,315 L 1982,317 L 1974,325 L 1971,325 L 1971,334 L 1980,337 L 1986,343 L 1991,356 L 1991,435 L 1989,442 L 1969,457 L 1950,465 L 1948,468 L 1939,470 L 1938,473 L 1925,478 L 1905,478 L 1904,475 L 1901,475 L 1892,481 L 1892,490 L 1916,514 L 1920,514 L 1924,519 L 1942,526 L 1959,527 L 1961,524 L 1974,519 L 1978,514 L 1984,513 L 1986,515 L 1986,521 L 1983,526 L 1976,525 L 1976,531 L 1981,536 L 1981,542 L 1983,543 L 1983,566 L 1971,598 L 1954,618 L 1947,621 L 1943,626 L 1939,626 L 1936,631 L 1926,631 L 1925,626 L 1913,631 L 1908,640 L 1908,646 L 1905,648 L 1905,656 L 1908,658 L 1908,662 L 1923,675 L 1934,690 L 1946,695 L 1959,695 L 1972,687 L 1972,683 L 1975,682 L 1977,676 L 1993,664 L 2019,635 L 2021,629 L 2037,612 L 2039,606 L 2047,599 L 2055,585 L 2058,584 L 2071,564 L 2076,560 L 2076,556 L 2086,540 L 2079,543 L 2068,557 L 2065,554 L 2076,542 L 2076,538 L 2086,527 L 2094,512 L 2102,505 L 2098,504 L 2063,538 L 2056,540 L 2052,546 L 2035,556 L 2031,561 L 2026,560 L 2034,483 L 2054,472 L 2058,472 L 2059,469 L 2063,469 L 2067,464 L 2078,464 L 2089,451 L 2089,440 L 2083,429 L 2070,424 L 2068,421 L 2039,417 L 2039,413 L 2042,412 L 2044,377 L 2047,375 L 2049,365 L 2047,351 L 2042,347 L 2042,343 L 2018,322 L 2005,317 L 1998,317 Z" fill="#094a9a" fill-rule="evenodd"/>
  <path d="M 1723,309 L 1715,309 L 1705,306 L 1700,301 L 1676,296 L 1665,304 L 1654,304 L 1648,307 L 1640,317 L 1609,330 L 1587,343 L 1577,343 L 1553,356 L 1533,361 L 1520,369 L 1501,374 L 1499,377 L 1485,379 L 1479,377 L 1473,369 L 1461,374 L 1458,386 L 1466,404 L 1487,420 L 1505,426 L 1520,425 L 1573,391 L 1578,393 L 1547,438 L 1523,463 L 1518,472 L 1488,499 L 1479,497 L 1472,502 L 1469,515 L 1466,517 L 1466,528 L 1469,530 L 1474,547 L 1482,554 L 1484,560 L 1490,563 L 1502,563 L 1518,550 L 1560,529 L 1569,527 L 1581,519 L 1587,519 L 1588,516 L 1628,495 L 1634,495 L 1636,492 L 1645,490 L 1646,487 L 1670,480 L 1672,477 L 1677,479 L 1651,499 L 1646,506 L 1677,495 L 1694,495 L 1715,506 L 1728,508 L 1744,498 L 1751,482 L 1751,475 L 1744,456 L 1733,442 L 1699,421 L 1663,411 L 1646,413 L 1648,423 L 1661,441 L 1659,447 L 1586,470 L 1585,473 L 1578,473 L 1571,478 L 1561,481 L 1559,479 L 1583,456 L 1592,451 L 1633,407 L 1640,404 L 1637,385 L 1641,381 L 1682,360 L 1703,352 L 1720,352 L 1728,347 L 1733,341 L 1733,328 L 1728,323 L 1728,315 Z" fill="#094a9a" fill-rule="evenodd"/>
  <path d="M 1339,262 L 1339,271 L 1341,272 L 1342,274 L 1343,274 L 1345,276 L 1345,277 L 1346,277 L 1347,279 L 1348,279 L 1350,281 L 1352,285 L 1353,285 L 1355,287 L 1355,290 L 1357,291 L 1357,293 L 1359,293 L 1360,294 L 1360,298 L 1362,299 L 1362,302 L 1365,304 L 1365,305 L 1367,307 L 1367,309 L 1368,311 L 1370,311 L 1371,312 L 1371,316 L 1373,317 L 1373,324 L 1371,325 L 1371,329 L 1370,330 L 1370,332 L 1369,333 L 1368,332 L 1367,337 L 1365,338 L 1365,340 L 1362,342 L 1362,345 L 1360,346 L 1359,348 L 1357,348 L 1357,352 L 1355,353 L 1355,355 L 1354,356 L 1352,356 L 1352,358 L 1350,360 L 1349,363 L 1347,364 L 1346,366 L 1346,368 L 1344,369 L 1344,371 L 1345,372 L 1347,370 L 1348,371 L 1350,368 L 1356,365 L 1357,363 L 1361,363 L 1361,362 L 1363,360 L 1375,360 L 1375,359 L 1379,357 L 1380,355 L 1389,355 L 1391,353 L 1393,353 L 1394,352 L 1413,352 L 1416,355 L 1428,355 L 1430,352 L 1434,352 L 1435,350 L 1440,350 L 1442,349 L 1442,348 L 1444,347 L 1444,346 L 1446,344 L 1447,344 L 1447,342 L 1449,340 L 1450,338 L 1450,336 L 1452,335 L 1452,317 L 1450,316 L 1450,314 L 1449,312 L 1447,311 L 1447,307 L 1446,307 L 1444,305 L 1444,301 L 1442,300 L 1442,298 L 1441,298 L 1440,296 L 1439,296 L 1438,294 L 1434,290 L 1434,289 L 1432,288 L 1432,286 L 1430,286 L 1429,285 L 1429,283 L 1428,283 L 1427,281 L 1425,281 L 1424,280 L 1424,278 L 1420,278 L 1419,276 L 1417,275 L 1415,275 L 1414,273 L 1412,273 L 1408,270 L 1404,270 L 1403,269 L 1402,270 L 1400,267 L 1396,267 L 1395,265 L 1386,265 L 1383,262 L 1378,262 L 1377,260 L 1355,260 L 1354,259 L 1347,259 L 1346,260 L 1344,260 L 1343,262 Z" fill="#094a9a" fill-rule="evenodd"/>
  <path d="M 567,310 L 564,308 L 564,304 L 559,296 L 557,296 L 556,294 L 553,294 L 546,287 L 543,276 L 541,273 L 539,273 L 536,270 L 532,270 L 529,267 L 518,268 L 515,267 L 514,265 L 511,265 L 510,262 L 508,262 L 507,260 L 500,260 L 494,257 L 466,257 L 460,260 L 448,260 L 447,262 L 441,262 L 439,265 L 432,265 L 431,267 L 423,267 L 421,270 L 415,270 L 411,273 L 407,273 L 406,275 L 399,276 L 398,278 L 384,278 L 382,281 L 373,283 L 371,286 L 365,286 L 364,288 L 357,291 L 356,294 L 351,294 L 350,296 L 339,296 L 338,298 L 328,299 L 327,301 L 319,301 L 317,304 L 300,304 L 299,306 L 285,307 L 283,309 L 274,309 L 267,311 L 248,310 L 245,312 L 235,312 L 235,318 L 250,329 L 251,332 L 253,332 L 259,339 L 268,345 L 277,355 L 281,355 L 283,358 L 286,358 L 287,360 L 294,363 L 295,365 L 298,365 L 300,368 L 305,368 L 308,371 L 317,374 L 318,376 L 323,376 L 324,378 L 330,379 L 331,381 L 390,381 L 391,383 L 385,389 L 383,389 L 383,391 L 380,392 L 377,397 L 375,397 L 371,402 L 368,403 L 365,408 L 366,410 L 368,407 L 372,407 L 373,404 L 377,404 L 378,402 L 380,402 L 381,399 L 385,399 L 386,397 L 390,396 L 391,394 L 403,388 L 404,386 L 408,386 L 414,381 L 419,381 L 420,379 L 423,378 L 427,379 L 432,378 L 433,376 L 436,376 L 442,373 L 448,368 L 452,368 L 454,365 L 473,365 L 474,363 L 486,357 L 487,355 L 494,352 L 495,350 L 501,350 L 506,347 L 510,347 L 514,350 L 522,350 L 525,349 L 526,347 L 533,347 L 534,345 L 538,344 L 539,342 L 541,342 L 553,334 L 554,331 L 556,330 L 556,325 L 564,321 L 564,317 L 567,316 Z" fill="#094a9a" fill-rule="evenodd"/>
  <path d="M 2638,257 L 2638,264 L 2642,264 L 2644,266 L 2647,266 L 2648,267 L 2648,268 L 2651,270 L 2651,271 L 2652,271 L 2653,272 L 2655,272 L 2656,273 L 2656,274 L 2657,274 L 2659,276 L 2659,277 L 2660,277 L 2661,278 L 2661,279 L 2662,280 L 2663,280 L 2665,282 L 2668,283 L 2669,284 L 2669,285 L 2670,285 L 2671,286 L 2671,287 L 2674,289 L 2674,291 L 2675,292 L 2675,293 L 2676,293 L 2677,294 L 2677,301 L 2676,302 L 2676,303 L 2675,304 L 2674,304 L 2674,306 L 2673,307 L 2672,307 L 2672,310 L 2670,312 L 2669,312 L 2669,313 L 2668,314 L 2667,314 L 2667,315 L 2664,318 L 2664,319 L 2663,320 L 2662,320 L 2662,321 L 2661,322 L 2661,324 L 2665,324 L 2667,322 L 2668,322 L 2669,321 L 2673,321 L 2673,320 L 2674,319 L 2678,319 L 2680,316 L 2687,316 L 2687,315 L 2690,313 L 2712,313 L 2714,315 L 2714,316 L 2718,316 L 2719,317 L 2719,319 L 2731,319 L 2734,316 L 2736,316 L 2736,314 L 2737,313 L 2738,313 L 2738,312 L 2739,311 L 2741,311 L 2741,309 L 2742,308 L 2743,308 L 2743,304 L 2744,303 L 2746,303 L 2746,286 L 2745,286 L 2743,284 L 2743,280 L 2742,280 L 2741,279 L 2741,275 L 2739,275 L 2738,274 L 2738,271 L 2736,269 L 2736,268 L 2735,267 L 2734,267 L 2733,266 L 2733,265 L 2732,265 L 2731,264 L 2731,263 L 2728,261 L 2728,260 L 2724,260 L 2723,259 L 2723,257 L 2719,257 L 2717,254 L 2714,254 L 2713,253 L 2713,252 L 2711,252 L 2709,250 L 2709,249 L 2699,249 L 2697,247 L 2688,247 L 2686,245 L 2685,245 L 2684,244 L 2675,244 L 2674,245 L 2672,245 L 2669,247 L 2661,247 L 2661,248 L 2660,249 L 2654,249 L 2653,250 L 2651,250 L 2649,252 L 2646,252 L 2644,254 L 2643,254 L 2642,255 L 2641,255 L 2639,257 Z" fill="#094a9a" fill-rule="evenodd"/>
  <path d="M 2342,221 L 2342,225 L 2343,225 L 2344,227 L 2346,228 L 2347,230 L 2348,230 L 2350,232 L 2350,235 L 2352,236 L 2352,238 L 2354,238 L 2355,239 L 2355,241 L 2357,242 L 2357,244 L 2358,246 L 2362,249 L 2362,253 L 2363,253 L 2365,255 L 2365,256 L 2367,257 L 2368,259 L 2368,261 L 2369,261 L 2370,263 L 2375,267 L 2375,269 L 2377,269 L 2378,270 L 2378,272 L 2380,273 L 2381,275 L 2381,277 L 2382,276 L 2383,277 L 2383,282 L 2382,283 L 2380,283 L 2380,285 L 2378,286 L 2378,288 L 2377,289 L 2375,289 L 2375,290 L 2373,291 L 2373,293 L 2372,294 L 2370,294 L 2370,295 L 2368,296 L 2368,297 L 2366,299 L 2365,299 L 2365,300 L 2363,301 L 2362,303 L 2360,304 L 2360,305 L 2358,307 L 2357,307 L 2356,309 L 2355,309 L 2355,311 L 2358,311 L 2360,308 L 2365,308 L 2367,306 L 2403,306 L 2404,308 L 2406,308 L 2407,309 L 2407,311 L 2411,311 L 2412,313 L 2424,313 L 2424,312 L 2426,311 L 2427,313 L 2432,314 L 2433,316 L 2435,316 L 2436,318 L 2438,319 L 2442,319 L 2443,318 L 2447,318 L 2448,316 L 2450,316 L 2451,314 L 2453,313 L 2455,313 L 2456,311 L 2458,311 L 2459,309 L 2462,308 L 2463,306 L 2463,304 L 2465,303 L 2466,301 L 2466,299 L 2467,298 L 2467,291 L 2468,290 L 2468,278 L 2466,277 L 2465,275 L 2465,273 L 2463,272 L 2463,269 L 2460,266 L 2460,265 L 2458,264 L 2458,262 L 2457,261 L 2457,257 L 2455,256 L 2455,252 L 2454,252 L 2452,250 L 2452,249 L 2451,249 L 2450,247 L 2449,247 L 2447,245 L 2447,244 L 2444,244 L 2443,242 L 2441,242 L 2438,239 L 2433,239 L 2432,237 L 2430,237 L 2428,236 L 2427,234 L 2425,234 L 2423,231 L 2420,231 L 2419,229 L 2414,229 L 2412,228 L 2411,226 L 2404,226 L 2403,224 L 2373,224 L 2372,223 L 2363,223 L 2361,221 L 2357,221 L 2356,219 L 2354,219 L 2353,218 L 2345,218 L 2344,220 Z" fill="#094a9a" fill-rule="evenodd"/>
  <path d="M 2941,205 L 2929,205 L 2928,208 L 2916,210 L 2915,213 L 2910,213 L 2903,219 L 2909,228 L 2914,228 L 2923,234 L 2929,245 L 2929,256 L 2931,257 L 2929,292 L 2926,301 L 2926,340 L 2923,353 L 2912,361 L 2908,361 L 2870,382 L 2864,382 L 2858,387 L 2834,391 L 2818,387 L 2812,392 L 2812,401 L 2830,420 L 2854,433 L 2892,435 L 2909,425 L 2916,424 L 2916,436 L 2911,445 L 2894,463 L 2897,464 L 2907,456 L 2913,457 L 2913,474 L 2908,484 L 2901,491 L 2866,507 L 2855,509 L 2852,505 L 2853,499 L 2849,499 L 2838,507 L 2838,510 L 2832,515 L 2832,531 L 2835,533 L 2835,537 L 2841,541 L 2841,545 L 2870,562 L 2843,597 L 2872,576 L 2899,562 L 2913,550 L 2955,524 L 2961,522 L 2963,526 L 2967,526 L 2980,519 L 2985,519 L 2986,516 L 2990,516 L 3002,508 L 3026,506 L 3037,492 L 3037,482 L 3029,468 L 3018,465 L 3005,457 L 2984,457 L 2977,462 L 2965,464 L 2967,431 L 2969,430 L 2969,421 L 2972,420 L 2975,400 L 2981,394 L 3009,386 L 3014,381 L 3033,373 L 3074,368 L 3083,363 L 3092,352 L 3092,348 L 3089,347 L 3084,336 L 3083,328 L 3073,322 L 3061,322 L 3045,312 L 3020,312 L 3019,314 L 3000,312 L 2993,305 L 2993,278 L 3003,261 L 3003,252 L 2998,239 L 2990,229 L 2986,229 L 2974,219 Z" fill="#094a9a" fill-rule="evenodd"/>
  <path d="M 2987,325 L 2988,324 L 2992,324 L 2993,325 L 2993,326 L 2990,329 L 2987,326 Z" fill="#094a9a" fill-rule="evenodd"/>
  <path d="M 1642,227 L 1640,226 L 1639,224 L 1636,223 L 1635,221 L 1633,221 L 1632,219 L 1629,217 L 1629,216 L 1626,216 L 1624,214 L 1624,213 L 1617,213 L 1616,211 L 1614,210 L 1611,210 L 1610,208 L 1604,208 L 1603,207 L 1603,205 L 1597,205 L 1596,203 L 1586,203 L 1585,202 L 1575,202 L 1574,203 L 1567,203 L 1565,205 L 1560,205 L 1560,206 L 1558,208 L 1553,208 L 1553,209 L 1552,210 L 1550,210 L 1548,213 L 1545,213 L 1545,214 L 1543,215 L 1541,218 L 1539,218 L 1539,222 L 1542,223 L 1544,225 L 1548,225 L 1550,228 L 1552,228 L 1554,230 L 1556,230 L 1558,233 L 1564,236 L 1565,238 L 1567,239 L 1567,241 L 1569,241 L 1570,242 L 1570,245 L 1571,245 L 1572,247 L 1575,249 L 1575,253 L 1576,253 L 1578,255 L 1578,264 L 1575,268 L 1575,272 L 1574,273 L 1573,272 L 1572,273 L 1572,275 L 1570,276 L 1570,280 L 1568,281 L 1567,283 L 1567,285 L 1565,286 L 1564,288 L 1563,288 L 1563,290 L 1560,294 L 1560,295 L 1559,296 L 1557,296 L 1557,298 L 1555,299 L 1554,301 L 1552,301 L 1552,303 L 1550,304 L 1550,305 L 1548,307 L 1549,308 L 1551,308 L 1552,306 L 1554,306 L 1556,305 L 1557,303 L 1561,303 L 1563,300 L 1566,300 L 1567,298 L 1569,298 L 1569,296 L 1570,295 L 1574,295 L 1575,293 L 1580,293 L 1581,291 L 1583,290 L 1587,290 L 1588,288 L 1593,288 L 1594,287 L 1595,288 L 1598,285 L 1609,285 L 1610,284 L 1616,284 L 1617,285 L 1621,285 L 1626,288 L 1631,288 L 1633,286 L 1635,285 L 1639,285 L 1641,282 L 1643,282 L 1643,281 L 1645,280 L 1645,278 L 1647,277 L 1647,276 L 1649,274 L 1650,274 L 1650,270 L 1652,268 L 1652,250 L 1650,248 L 1650,244 L 1648,244 L 1647,243 L 1647,239 L 1645,238 L 1645,233 L 1642,230 Z" fill="#094a9a" fill-rule="evenodd"/>
  <path d="M 2172,177 L 2172,186 L 2187,189 L 2207,211 L 2246,349 L 2157,394 L 2135,400 L 2116,395 L 2110,409 L 2147,438 L 2177,443 L 2160,461 L 2162,464 L 2262,404 L 2269,413 L 2287,480 L 2329,584 L 2313,617 L 2273,668 L 2255,683 L 2232,683 L 2227,678 L 2235,700 L 2246,708 L 2268,711 L 2305,698 L 2357,646 L 2380,692 L 2399,718 L 2407,742 L 2433,766 L 2446,786 L 2488,809 L 2510,811 L 2522,807 L 2535,794 L 2540,769 L 2522,726 L 2504,642 L 2501,647 L 2499,614 L 2492,615 L 2486,574 L 2482,577 L 2474,653 L 2463,688 L 2413,630 L 2393,594 L 2424,531 L 2437,492 L 2447,478 L 2442,454 L 2431,442 L 2398,426 L 2378,429 L 2370,443 L 2383,455 L 2383,472 L 2361,528 L 2356,527 L 2320,446 L 2302,385 L 2332,371 L 2351,368 L 2361,355 L 2361,345 L 2356,335 L 2341,325 L 2326,325 L 2318,320 L 2305,320 L 2294,330 L 2285,330 L 2261,242 L 2261,208 L 2252,192 L 2212,166 L 2194,164 Z" fill="#094a9a" fill-rule="evenodd"/>
  <path d="M 1102,163 L 1095,167 L 1094,171 L 1077,179 L 1069,190 L 1069,196 L 1072,199 L 1083,199 L 1097,208 L 1102,218 L 1103,235 L 1105,237 L 1102,333 L 1105,415 L 1100,419 L 1100,651 L 1103,658 L 1103,682 L 1098,684 L 1098,695 L 1100,696 L 1103,734 L 1105,735 L 1111,775 L 1112,762 L 1114,760 L 1119,763 L 1120,761 L 1124,762 L 1119,812 L 1122,812 L 1130,802 L 1130,797 L 1133,795 L 1135,785 L 1138,784 L 1146,761 L 1152,760 L 1147,774 L 1148,781 L 1148,777 L 1151,776 L 1151,771 L 1159,756 L 1169,747 L 1174,725 L 1179,718 L 1179,692 L 1182,687 L 1182,606 L 1180,605 L 1178,585 L 1180,580 L 1180,333 L 1182,332 L 1185,260 L 1193,237 L 1193,222 L 1188,205 L 1177,192 L 1167,185 L 1163,185 L 1148,174 L 1140,174 L 1133,169 Z" fill="#094a9a" fill-rule="evenodd"/>
  <path d="M 1106,444 L 1107,445 L 1107,473 L 1108,474 L 1107,475 L 1107,482 L 1108,483 L 1108,489 L 1107,490 L 1107,496 L 1106,497 L 1105,496 L 1105,492 L 1104,491 L 1104,483 L 1105,482 L 1105,478 L 1104,477 L 1104,447 L 1105,446 L 1105,445 Z" fill="#094a9a" fill-rule="evenodd"/>
  <path d="M 1176,435 L 1177,436 L 1177,437 L 1178,438 L 1178,459 L 1177,460 L 1176,460 L 1175,459 L 1175,458 L 1174,457 L 1174,452 L 1175,451 L 1175,436 Z" fill="#094a9a" fill-rule="evenodd"/>
</svg>
